solid csg.js
facet normal 0 0 -1
outer loop
vertex 1.11944648168499 1 -0.2
vertex 1.2003209631427887 0.9797419969825879 -0.2
vertex 0.801470433459303 0.9797419969825879 -0.2
endloop
endfacet
facet normal 0 0 -1
outer loop
vertex 1.11944648168499 1 -0.2
vertex 0.801470433459303 0.9797419969825879 -0.2
vertex 0.8049096779838714 0.9807852804032304 -0.2
endloop
endfacet
facet normal 0 0 -1
outer loop
vertex 1.11944648168499 1 -0.2
vertex 0.8049096779838714 0.9807852804032304 -0.2
vertex 0.9999999999999998 1 -0.2
endloop
endfacet
facet normal 0 0 -1
outer loop
vertex 5 1 -0.2
vertex 5.195090322016128 0.9807852804032304 -0.2
vertex 5.198529566540697 0.9797419969825879 -0.2
endloop
endfacet
facet normal 0 0 -1
outer loop
vertex 5 1 -0.2
vertex 5.198529566540697 0.9797419969825879 -0.2
vertex 2.7996790368572113 0.9797419969825879 -0.2
endloop
endfacet
facet normal 0 0 -1
outer loop
vertex 5 1 -0.2
vertex 2.7996790368572113 0.9797419969825879 -0.2
vertex 2.88055351831501 1 -0.2
endloop
endfacet
facet normal 0 0 -1
outer loop
vertex 1.2003209631427887 0.9797419969825879 -0.2
vertex 1.5982258291225708 0.9207183857411633 -0.2
vertex 0.611402477997656 0.9207183857411633 -0.2
endloop
endfacet
facet normal 0 0 -1
outer loop
vertex 1.2003209631427887 0.9797419969825879 -0.2
vertex 0.611402477997656 0.9207183857411633 -0.2
vertex 0.6173165676349097 0.9238795325112865 -0.2
endloop
endfacet
facet normal 0 0 -1
outer loop
vertex 1.2003209631427887 0.9797419969825879 -0.2
vertex 0.6173165676349097 0.9238795325112865 -0.2
vertex 0.801470433459303 0.9797419969825879 -0.2
endloop
endfacet
facet normal 0 0 -1
outer loop
vertex 5.198529566540697 0.9797419969825879 -0.2
vertex 5.38268343236509 0.9238795325112865 -0.2
vertex 5.388597522002343 0.9207183857411633 -0.2
endloop
endfacet
facet normal 0 0 -1
outer loop
vertex 5.198529566540697 0.9797419969825879 -0.2
vertex 5.388597522002343 0.9207183857411633 -0.2
vertex 2.4017741708774296 0.9207183857411633 -0.2
endloop
endfacet
facet normal 0 0 -1
outer loop
vertex 5.198529566540697 0.9797419969825879 -0.2
vertex 2.4017741708774296 0.9207183857411633 -0.2
vertex 2.7996790368572113 0.9797419969825879 -0.2
endloop
endfacet
facet normal 0 0 -1
outer loop
vertex 1.5982258291225708 0.9207183857411633 -0.2
vertex 1.999999999999999 0.9009804864072155 -0.2
vertex 0.5744754656186943 0.9009804864072155 -0.2
endloop
endfacet
facet normal 0 0 -1
outer loop
vertex 1.5982258291225708 0.9207183857411633 -0.2
vertex 0.5744754656186943 0.9009804864072155 -0.2
vertex 0.611402477997656 0.9207183857411633 -0.2
endloop
endfacet
facet normal 0 0 -1
outer loop
vertex 5.388597522002343 0.9207183857411633 -0.2
vertex 5.425524534381305 0.9009804864072155 -0.2
vertex 1.999999999999999 0.9009804864072155 -0.2
endloop
endfacet
facet normal 0 0 -1
outer loop
vertex 5.388597522002343 0.9207183857411633 -0.2
vertex 1.999999999999999 0.9009804864072155 -0.2
vertex 2.4017741708774296 0.9207183857411633 -0.2
endloop
endfacet
facet normal 0 0 -1
outer loop
vertex 5.425524534381305 0.9009804864072155 -0.2
vertex 5.555570233019601 0.8314696123025453 -0.2
vertex 5.707106781186548 0.7071067811865475 -0.2
endloop
endfacet
facet normal 0 0 -1
outer loop
vertex 5.425524534381305 0.9009804864072155 -0.2
vertex 5.707106781186548 0.7071067811865475 -0.2
vertex 5.831469612302545 0.555570233019602 -0.2
endloop
endfacet
facet normal 0 0 -1
outer loop
vertex 5.425524534381305 0.9009804864072155 -0.2
vertex 5.831469612302545 0.555570233019602 -0.2
vertex 5.923879532511286 0.3826834323650896 -0.2
endloop
endfacet
facet normal 0 0 -1
outer loop
vertex 5.425524534381305 0.9009804864072155 -0.2
vertex 5.923879532511286 0.3826834323650896 -0.2
vertex 5.98078528040323 0.19509032201612841 -0.2
endloop
endfacet
facet normal 0 0 -1
outer loop
vertex 5.425524534381305 0.9009804864072155 -0.2
vertex 5.98078528040323 0.19509032201612841 -0.2
vertex 5.985226289496425 0.15 -0.2
endloop
endfacet
facet normal 0 0 -1
outer loop
vertex 5.425524534381305 0.9009804864072155 -0.2
vertex 5.985226289496425 0.15 -0.2
vertex 0.014773710503574677 0.15 -0.2
endloop
endfacet
facet normal 0 0 -1
outer loop
vertex 5.425524534381305 0.9009804864072155 -0.2
vertex 0.014773710503574677 0.15 -0.2
vertex 0.01921471959676957 0.19509032201612841 -0.2
endloop
endfacet
facet normal 0 0 -1
outer loop
vertex 5.425524534381305 0.9009804864072155 -0.2
vertex 0.01921471959676957 0.19509032201612841 -0.2
vertex 0.07612046748871315 0.3826834323650896 -0.2
endloop
endfacet
facet normal 0 0 -1
outer loop
vertex 5.425524534381305 0.9009804864072155 -0.2
vertex 0.07612046748871315 0.3826834323650896 -0.2
vertex 0.16853038769745454 0.555570233019602 -0.2
endloop
endfacet
facet normal 0 0 -1
outer loop
vertex 5.425524534381305 0.9009804864072155 -0.2
vertex 0.16853038769745454 0.555570233019602 -0.2
vertex 0.2928932188134523 0.7071067811865475 -0.2
endloop
endfacet
facet normal 0 0 -1
outer loop
vertex 5.425524534381305 0.9009804864072155 -0.2
vertex 0.2928932188134523 0.7071067811865475 -0.2
vertex 0.4444297669803978 0.8314696123025453 -0.2
endloop
endfacet
facet normal 0 0 -1
outer loop
vertex 5.425524534381305 0.9009804864072155 -0.2
vertex 0.4444297669803978 0.8314696123025453 -0.2
vertex 0.5744754656186943 0.9009804864072155 -0.2
endloop
endfacet
facet normal 0 0 -1
outer loop
vertex 0.9999999999999999 0.15 -0.2
vertex 0.9707364516975806 0.14711779206048453 -0.2
vertex 0.014489837798844607 0.14711779206048453 -0.2
endloop
endfacet
facet normal 0 0 -1
outer loop
vertex 0.9999999999999999 0.15 -0.2
vertex 0.014489837798844607 0.14711779206048453 -0.2
vertex 0.014773710503574677 0.15 -0.2
endloop
endfacet
facet normal 0 0 -1
outer loop
vertex 5.985226289496425 0.15 -0.2
vertex 5.985510162201155 0.14711779206048453 -0.2
vertex 1.0292635483024195 0.14711779206048453 -0.2
endloop
endfacet
facet normal 0 0 -1
outer loop
vertex 5.985226289496425 0.15 -0.2
vertex 1.0292635483024195 0.14711779206048453 -0.2
vertex 0.9999999999999999 0.15 -0.2
endloop
endfacet
facet normal 0 0 -1
outer loop
vertex 0.9707364516975806 0.14711779206048453 -0.2
vertex 0.9425974851452364 0.138581929876693 -0.2
vertex 0.013649128753499662 0.138581929876693 -0.2
endloop
endfacet
facet normal 0 0 -1
outer loop
vertex 0.9707364516975806 0.14711779206048453 -0.2
vertex 0.013649128753499662 0.138581929876693 -0.2
vertex 0.014489837798844607 0.14711779206048453 -0.2
endloop
endfacet
facet normal 0 0 -1
outer loop
vertex 5.985510162201155 0.14711779206048453 -0.2
vertex 5.986350871246501 0.138581929876693 -0.2
vertex 1.0574025148547634 0.138581929876693 -0.2
endloop
endfacet
facet normal 0 0 -1
outer loop
vertex 5.985510162201155 0.14711779206048453 -0.2
vertex 1.0574025148547634 0.138581929876693 -0.2
vertex 1.0292635483024195 0.14711779206048453 -0.2
endloop
endfacet
facet normal 0 0 -1
outer loop
vertex 0.9425974851452364 0.138581929876693 -0.2
vertex 0.9166644650470596 0.12472044184538175 -0.2
vertex 0.012283891344677222 0.12472044184538175 -0.2
endloop
endfacet
facet normal 0 0 -1
outer loop
vertex 0.9425974851452364 0.138581929876693 -0.2
vertex 0.012283891344677222 0.12472044184538175 -0.2
vertex 0.013649128753499662 0.138581929876693 -0.2
endloop
endfacet
facet normal 0 0 -1
outer loop
vertex 5.986350871246501 0.138581929876693 -0.2
vertex 5.987716108655323 0.12472044184538175 -0.2
vertex 1.08333553495294 0.12472044184538175 -0.2
endloop
endfacet
facet normal 0 0 -1
outer loop
vertex 5.986350871246501 0.138581929876693 -0.2
vertex 1.08333553495294 0.12472044184538175 -0.2
vertex 1.0574025148547634 0.138581929876693 -0.2
endloop
endfacet
facet normal 0 0 -1
outer loop
vertex 0.9166644650470596 0.12472044184538175 -0.2
vertex 0.8939339828220176 0.10606601717798203 -0.2
vertex 0.010446590880364592 0.10606601717798203 -0.2
endloop
endfacet
facet normal 0 0 -1
outer loop
vertex 0.9166644650470596 0.12472044184538175 -0.2
vertex 0.010446590880364592 0.10606601717798203 -0.2
vertex 0.012283891344677222 0.12472044184538175 -0.2
endloop
endfacet
facet normal 0 0 -1
outer loop
vertex 5.987716108655323 0.12472044184538175 -0.2
vertex 5.989553409119636 0.10606601717798203 -0.2
vertex 1.1060660171779824 0.10606601717798203 -0.2
endloop
endfacet
facet normal 0 0 -1
outer loop
vertex 5.987716108655323 0.12472044184538175 -0.2
vertex 1.1060660171779824 0.10606601717798203 -0.2
vertex 1.08333553495294 0.12472044184538175 -0.2
endloop
endfacet
facet normal 0 0 -1
outer loop
vertex 0.8939339828220176 0.10606601717798203 -0.2
vertex 0.8752795581546183 0.08333553495294055 -0.2
vertex 0.008207833787035157 0.08333553495294055 -0.2
endloop
endfacet
facet normal 0 0 -1
outer loop
vertex 0.8939339828220176 0.10606601717798203 -0.2
vertex 0.008207833787035157 0.08333553495294055 -0.2
vertex 0.010446590880364592 0.10606601717798203 -0.2
endloop
endfacet
facet normal 0 0 -1
outer loop
vertex 5.989553409119636 0.10606601717798203 -0.2
vertex 5.9917921662129645 0.08333553495294055 -0.2
vertex 1.1247204418453816 0.08333553495294055 -0.2
endloop
endfacet
facet normal 0 0 -1
outer loop
vertex 5.989553409119636 0.10606601717798203 -0.2
vertex 1.1247204418453816 0.08333553495294055 -0.2
vertex 1.1060660171779824 0.10606601717798203 -0.2
endloop
endfacet
facet normal 0 0 -1
outer loop
vertex 0.8752795581546183 0.08333553495294055 -0.2
vertex 0.8614180701233071 0.05740251485476355 -0.2
vertex 0.005653654244276107 0.05740251485476355 -0.2
endloop
endfacet
facet normal 0 0 -1
outer loop
vertex 0.8752795581546183 0.08333553495294055 -0.2
vertex 0.005653654244276107 0.05740251485476355 -0.2
vertex 0.008207833787035157 0.08333553495294055 -0.2
endloop
endfacet
facet normal 0 0 -1
outer loop
vertex 5.9917921662129645 0.08333553495294055 -0.2
vertex 5.994346345755724 0.05740251485476355 -0.2
vertex 1.1385819298766928 0.05740251485476355 -0.2
endloop
endfacet
facet normal 0 0 -1
outer loop
vertex 5.9917921662129645 0.08333553495294055 -0.2
vertex 1.1385819298766928 0.05740251485476355 -0.2
vertex 1.1247204418453816 0.08333553495294055 -0.2
endloop
endfacet
facet normal 0 0 -1
outer loop
vertex 0.8614180701233071 0.05740251485476355 -0.2
vertex 0.8528822079395154 0.029263548302419284 -0.2
vertex 0.0028822079395154354 0.029263548302419284 -0.2
endloop
endfacet
facet normal 0 0 -1
outer loop
vertex 0.8614180701233071 0.05740251485476355 -0.2
vertex 0.0028822079395154354 0.029263548302419284 -0.2
vertex 0.005653654244276107 0.05740251485476355 -0.2
endloop
endfacet
facet normal 0 0 -1
outer loop
vertex 5.994346345755724 0.05740251485476355 -0.2
vertex 5.997117792060484 0.029263548302419284 -0.2
vertex 1.1471177920604845 0.029263548302419284 -0.2
endloop
endfacet
facet normal 0 0 -1
outer loop
vertex 5.994346345755724 0.05740251485476355 -0.2
vertex 1.1471177920604845 0.029263548302419284 -0.2
vertex 1.1385819298766928 0.05740251485476355 -0.2
endloop
endfacet
facet normal 0 0 -1
outer loop
vertex 0.8528822079395154 0.029263548302419284 -0.2
vertex 0.85 0 -0.2
vertex 0 0 -0.2
endloop
endfacet
facet normal 0 0 -1
outer loop
vertex 0.8528822079395154 0.029263548302419284 -0.2
vertex 0 0 -0.2
vertex 0.0028822079395154354 0.029263548302419284 -0.2
endloop
endfacet
facet normal 0 0 -1
outer loop
vertex 5.997117792060484 0.029263548302419284 -0.2
vertex 6 0 -0.2
vertex 1.1500000000000001 0 -0.2
endloop
endfacet
facet normal 0 0 -1
outer loop
vertex 5.997117792060484 0.029263548302419284 -0.2
vertex 1.1500000000000001 0 -0.2
vertex 1.1471177920604845 0.029263548302419284 -0.2
endloop
endfacet
facet normal 0 0 -1
outer loop
vertex 0.85 0 -0.2
vertex 0.8528822079395155 -0.029263548302417508 -0.2
vertex 0.0028822079395153244 -0.029263548302417508 -0.2
endloop
endfacet
facet normal 0 0 -1
outer loop
vertex 0.85 0 -0.2
vertex 0.0028822079395153244 -0.029263548302417508 -0.2
vertex 0 0 -0.2
endloop
endfacet
facet normal 0 0 -1
outer loop
vertex 4 0 -0.2
vertex 3.9971177920604846 -0.029263548302417508 -0.2
vertex 1.1471177920604851 -0.029263548302417508 -0.2
endloop
endfacet
facet normal 0 0 -1
outer loop
vertex 4 0 -0.2
vertex 1.1471177920604851 -0.029263548302417508 -0.2
vertex 1.1500000000000001 0 -0.2
endloop
endfacet
facet normal 0 0 -1
outer loop
vertex 0.8528822079395155 -0.029263548302417508 -0.2
vertex 0.8614180701233071 -0.057402514854763775 -0.2
vertex 0.005653654244276218 -0.057402514854763775 -0.2
endloop
endfacet
facet normal 0 0 -1
outer loop
vertex 0.8528822079395155 -0.029263548302417508 -0.2
vertex 0.005653654244276218 -0.057402514854763775 -0.2
vertex 0.0028822079395153244 -0.029263548302417508 -0.2
endloop
endfacet
facet normal 0 0 -1
outer loop
vertex 3.9971177920604846 -0.029263548302417508 -0.2
vertex 3.994346345755724 -0.057402514854763775 -0.2
vertex 1.1385819298766928 -0.057402514854763775 -0.2
endloop
endfacet
facet normal 0 0 -1
outer loop
vertex 3.9971177920604846 -0.029263548302417508 -0.2
vertex 1.1385819298766928 -0.057402514854763775 -0.2
vertex 1.1471177920604851 -0.029263548302417508 -0.2
endloop
endfacet
facet normal 0 0 -1
outer loop
vertex 0.8614180701233071 -0.057402514854763775 -0.2
vertex 0.8752795581546174 -0.0833355349529401 -0.2
vertex 0.008207833787035157 -0.0833355349529401 -0.2
endloop
endfacet
facet normal 0 0 -1
outer loop
vertex 0.8614180701233071 -0.057402514854763775 -0.2
vertex 0.008207833787035157 -0.0833355349529401 -0.2
vertex 0.005653654244276218 -0.057402514854763775 -0.2
endloop
endfacet
facet normal 0 0 -1
outer loop
vertex 3.994346345755724 -0.057402514854763775 -0.2
vertex 3.991792166212965 -0.0833355349529401 -0.2
vertex 1.124720441845382 -0.0833355349529401 -0.2
endloop
endfacet
facet normal 0 0 -1
outer loop
vertex 3.994346345755724 -0.057402514854763775 -0.2
vertex 1.124720441845382 -0.0833355349529401 -0.2
vertex 1.1385819298766928 -0.057402514854763775 -0.2
endloop
endfacet
facet normal 0 0 -1
outer loop
vertex 0.8752795581546174 -0.0833355349529401 -0.2
vertex 0.8939339828220182 -0.10606601717798225 -0.2
vertex 0.010446590880364592 -0.10606601717798225 -0.2
endloop
endfacet
facet normal 0 0 -1
outer loop
vertex 0.8752795581546174 -0.0833355349529401 -0.2
vertex 0.010446590880364592 -0.10606601717798225 -0.2
vertex 0.008207833787035157 -0.0833355349529401 -0.2
endloop
endfacet
facet normal 0 0 -1
outer loop
vertex 3.991792166212965 -0.0833355349529401 -0.2
vertex 3.9895534091196354 -0.10606601717798225 -0.2
vertex 1.1060660171779821 -0.10606601717798225 -0.2
endloop
endfacet
facet normal 0 0 -1
outer loop
vertex 3.991792166212965 -0.0833355349529401 -0.2
vertex 1.1060660171779821 -0.10606601717798225 -0.2
vertex 1.124720441845382 -0.0833355349529401 -0.2
endloop
endfacet
facet normal 0 0 -1
outer loop
vertex 0.8939339828220182 -0.10606601717798225 -0.2
vertex 0.9166644650470598 -0.12472044184538178 -0.2
vertex 0.012283891344677222 -0.12472044184538178 -0.2
endloop
endfacet
facet normal 0 0 -1
outer loop
vertex 0.8939339828220182 -0.10606601717798225 -0.2
vertex 0.012283891344677222 -0.12472044184538178 -0.2
vertex 0.010446590880364592 -0.10606601717798225 -0.2
endloop
endfacet
facet normal 0 0 -1
outer loop
vertex 3.9895534091196354 -0.10606601717798225 -0.2
vertex 3.9877161086553228 -0.12472044184538178 -0.2
vertex 1.0833355349529403 -0.12472044184538178 -0.2
endloop
endfacet
facet normal 0 0 -1
outer loop
vertex 3.9895534091196354 -0.10606601717798225 -0.2
vertex 1.0833355349529403 -0.12472044184538178 -0.2
vertex 1.1060660171779821 -0.10606601717798225 -0.2
endloop
endfacet
facet normal 0 0 -1
outer loop
vertex 0.9166644650470598 -0.12472044184538178 -0.2
vertex 0.9425974851452369 -0.138581929876693 -0.2
vertex 0.013649128753499662 -0.138581929876693 -0.2
endloop
endfacet
facet normal 0 0 -1
outer loop
vertex 0.9166644650470598 -0.12472044184538178 -0.2
vertex 0.013649128753499662 -0.138581929876693 -0.2
vertex 0.012283891344677222 -0.12472044184538178 -0.2
endloop
endfacet
facet normal 0 0 -1
outer loop
vertex 3.9877161086553228 -0.12472044184538178 -0.2
vertex 3.9863508712465006 -0.138581929876693 -0.2
vertex 1.0574025148547637 -0.138581929876693 -0.2
endloop
endfacet
facet normal 0 0 -1
outer loop
vertex 3.9877161086553228 -0.12472044184538178 -0.2
vertex 1.0574025148547637 -0.138581929876693 -0.2
vertex 1.0833355349529403 -0.12472044184538178 -0.2
endloop
endfacet
facet normal 0 0 -1
outer loop
vertex 0.9425974851452369 -0.138581929876693 -0.2
vertex 0.9707364516975812 -0.1471177920604846 -0.2
vertex 0.014489837798844607 -0.1471177920604846 -0.2
endloop
endfacet
facet normal 0 0 -1
outer loop
vertex 0.9425974851452369 -0.138581929876693 -0.2
vertex 0.014489837798844607 -0.1471177920604846 -0.2
vertex 0.013649128753499662 -0.138581929876693 -0.2
endloop
endfacet
facet normal 0 0 -1
outer loop
vertex 3.9863508712465006 -0.138581929876693 -0.2
vertex 3.9855101622011553 -0.1471177920604846 -0.2
vertex 1.029263548302419 -0.1471177920604846 -0.2
endloop
endfacet
facet normal 0 0 -1
outer loop
vertex 3.9863508712465006 -0.138581929876693 -0.2
vertex 1.029263548302419 -0.1471177920604846 -0.2
vertex 1.0574025148547637 -0.138581929876693 -0.2
endloop
endfacet
facet normal 0 0 -1
outer loop
vertex 0.9707364516975812 -0.1471177920604846 -0.2
vertex 0.9999999999999999 -0.15000000000000002 -0.2
vertex 0.014773710503574677 -0.15000000000000002 -0.2
endloop
endfacet
facet normal 0 0 -1
outer loop
vertex 0.9707364516975812 -0.1471177920604846 -0.2
vertex 0.014773710503574677 -0.15000000000000002 -0.2
vertex 0.014489837798844607 -0.1471177920604846 -0.2
endloop
endfacet
facet normal 0 0 -1
outer loop
vertex 3.9855101622011553 -0.1471177920604846 -0.2
vertex 3.9852262894964254 -0.15000000000000002 -0.2
vertex 0.9999999999999999 -0.15000000000000002 -0.2
endloop
endfacet
facet normal 0 0 -1
outer loop
vertex 3.9855101622011553 -0.1471177920604846 -0.2
vertex 0.9999999999999999 -0.15000000000000002 -0.2
vertex 1.029263548302419 -0.1471177920604846 -0.2
endloop
endfacet
facet normal 0 0 -1
outer loop
vertex 3.9852262894964254 -0.15000000000000002 -0.2
vertex 3.9807852804032304 -0.1950903220161282 -0.2
vertex 3.923879532511287 -0.38268343236508984 -0.2
endloop
endfacet
facet normal 0 0 -1
outer loop
vertex 3.9852262894964254 -0.15000000000000002 -0.2
vertex 3.923879532511287 -0.38268343236508984 -0.2
vertex 3.8314696123025453 -0.5555702330196022 -0.2
endloop
endfacet
facet normal 0 0 -1
outer loop
vertex 3.9852262894964254 -0.15000000000000002 -0.2
vertex 3.8314696123025453 -0.5555702330196022 -0.2
vertex 3.7071067811865475 -0.7071067811865475 -0.2
endloop
endfacet
facet normal 0 0 -1
outer loop
vertex 3.9852262894964254 -0.15000000000000002 -0.2
vertex 3.7071067811865475 -0.7071067811865475 -0.2
vertex 3.555570233019602 -0.8314696123025452 -0.2
endloop
endfacet
facet normal 0 0 -1
outer loop
vertex 3.9852262894964254 -0.15000000000000002 -0.2
vertex 3.555570233019602 -0.8314696123025452 -0.2
vertex 3.425524534381305 -0.9009804864072155 -0.2
endloop
endfacet
facet normal 0 0 -1
outer loop
vertex 3.9852262894964254 -0.15000000000000002 -0.2
vertex 3.425524534381305 -0.9009804864072155 -0.2
vertex 0.5744754656186946 -0.9009804864072155 -0.2
endloop
endfacet
facet normal 0 0 -1
outer loop
vertex 3.9852262894964254 -0.15000000000000002 -0.2
vertex 0.5744754656186946 -0.9009804864072155 -0.2
vertex 0.44442976698039804 -0.8314696123025452 -0.2
endloop
endfacet
facet normal 0 0 -1
outer loop
vertex 3.9852262894964254 -0.15000000000000002 -0.2
vertex 0.44442976698039804 -0.8314696123025452 -0.2
vertex 0.29289321881345254 -0.7071067811865475 -0.2
endloop
endfacet
facet normal 0 0 -1
outer loop
vertex 3.9852262894964254 -0.15000000000000002 -0.2
vertex 0.29289321881345254 -0.7071067811865475 -0.2
vertex 0.16853038769745465 -0.5555702330196022 -0.2
endloop
endfacet
facet normal 0 0 -1
outer loop
vertex 3.9852262894964254 -0.15000000000000002 -0.2
vertex 0.16853038769745465 -0.5555702330196022 -0.2
vertex 0.07612046748871326 -0.38268343236508984 -0.2
endloop
endfacet
facet normal 0 0 -1
outer loop
vertex 3.9852262894964254 -0.15000000000000002 -0.2
vertex 0.07612046748871326 -0.38268343236508984 -0.2
vertex 0.01921471959676957 -0.1950903220161282 -0.2
endloop
endfacet
facet normal 0 0 -1
outer loop
vertex 3.9852262894964254 -0.15000000000000002 -0.2
vertex 0.01921471959676957 -0.1950903220161282 -0.2
vertex 0.014773710503574677 -0.15000000000000002 -0.2
endloop
endfacet
facet normal 0 0 -1
outer loop
vertex 1.999999999999999 -0.9009804864072155 -0.2
vertex 1.5982258291225724 -0.9207183857411633 -0.2
vertex 0.6114024779976562 -0.9207183857411633 -0.2
endloop
endfacet
facet normal 0 0 -1
outer loop
vertex 1.999999999999999 -0.9009804864072155 -0.2
vertex 0.6114024779976562 -0.9207183857411633 -0.2
vertex 0.5744754656186946 -0.9009804864072155 -0.2
endloop
endfacet
facet normal 0 0 -1
outer loop
vertex 3.425524534381305 -0.9009804864072155 -0.2
vertex 3.388597522002344 -0.9207183857411633 -0.2
vertex 2.4017741708774296 -0.9207183857411633 -0.2
endloop
endfacet
facet normal 0 0 -1
outer loop
vertex 3.425524534381305 -0.9009804864072155 -0.2
vertex 2.4017741708774296 -0.9207183857411633 -0.2
vertex 1.999999999999999 -0.9009804864072155 -0.2
endloop
endfacet
facet normal 0 0 -1
outer loop
vertex 1.5982258291225724 -0.9207183857411633 -0.2
vertex 1.2003209631427896 -0.9797419969825877 -0.2
vertex 0.8014704334593027 -0.9797419969825877 -0.2
endloop
endfacet
facet normal 0 0 -1
outer loop
vertex 1.5982258291225724 -0.9207183857411633 -0.2
vertex 0.8014704334593027 -0.9797419969825877 -0.2
vertex 0.6173165676349103 -0.9238795325112867 -0.2
endloop
endfacet
facet normal 0 0 -1
outer loop
vertex 1.5982258291225724 -0.9207183857411633 -0.2
vertex 0.6173165676349103 -0.9238795325112867 -0.2
vertex 0.6114024779976562 -0.9207183857411633 -0.2
endloop
endfacet
facet normal 0 0 -1
outer loop
vertex 3.388597522002344 -0.9207183857411633 -0.2
vertex 3.3826834323650896 -0.9238795325112867 -0.2
vertex 3.1985295665406976 -0.9797419969825877 -0.2
endloop
endfacet
facet normal 0 0 -1
outer loop
vertex 3.388597522002344 -0.9207183857411633 -0.2
vertex 3.1985295665406976 -0.9797419969825877 -0.2
vertex 2.799679036857211 -0.9797419969825877 -0.2
endloop
endfacet
facet normal 0 0 -1
outer loop
vertex 3.388597522002344 -0.9207183857411633 -0.2
vertex 2.799679036857211 -0.9797419969825877 -0.2
vertex 2.4017741708774296 -0.9207183857411633 -0.2
endloop
endfacet
facet normal 0 0 -1
outer loop
vertex 1.2003209631427896 -0.9797419969825877 -0.2
vertex 1.11944648168499 -1 -0.2
vertex 1 -1 -0.2
endloop
endfacet
facet normal 0 0 -1
outer loop
vertex 1.2003209631427896 -0.9797419969825877 -0.2
vertex 1 -1 -0.2
vertex 0.8049096779838718 -0.9807852804032304 -0.2
endloop
endfacet
facet normal 0 0 -1
outer loop
vertex 1.2003209631427896 -0.9797419969825877 -0.2
vertex 0.8049096779838718 -0.9807852804032304 -0.2
vertex 0.8014704334593027 -0.9797419969825877 -0.2
endloop
endfacet
facet normal 0 0 -1
outer loop
vertex 3.1985295665406976 -0.9797419969825877 -0.2
vertex 3.1950903220161284 -0.9807852804032304 -0.2
vertex 3 -1 -0.2
endloop
endfacet
facet normal 0 0 -1
outer loop
vertex 3.1985295665406976 -0.9797419969825877 -0.2
vertex 3 -1 -0.2
vertex 2.8805535183150095 -1 -0.2
endloop
endfacet
facet normal 0 0 -1
outer loop
vertex 3.1985295665406976 -0.9797419969825877 -0.2
vertex 2.8805535183150095 -1 -0.2
vertex 2.799679036857211 -0.9797419969825877 -0.2
endloop
endfacet
facet normal 0 0 1
outer loop
vertex 1.11944648168499 -1 0.2
vertex 1.2003209631427894 -0.9797419969825878 0.2
vertex 0.801470433459303 -0.9797419969825878 0.2
endloop
endfacet
facet normal 0 0 1
outer loop
vertex 1.11944648168499 -1 0.2
vertex 0.801470433459303 -0.9797419969825878 0.2
vertex 0.8049096779838718 -0.9807852804032304 0.2
endloop
endfacet
facet normal 0 0 1
outer loop
vertex 1.11944648168499 -1 0.2
vertex 0.8049096779838718 -0.9807852804032304 0.2
vertex 1 -1 0.2
endloop
endfacet
facet normal 0 0 1
outer loop
vertex 3 -1 0.2
vertex 3.1950903220161284 -0.9807852804032304 0.2
vertex 3.198529566540697 -0.9797419969825878 0.2
endloop
endfacet
facet normal 0 0 1
outer loop
vertex 3 -1 0.2
vertex 3.198529566540697 -0.9797419969825878 0.2
vertex 2.79967903685721 -0.9797419969825878 0.2
endloop
endfacet
facet normal 0 0 1
outer loop
vertex 3 -1 0.2
vertex 2.79967903685721 -0.9797419969825878 0.2
vertex 2.8805535183150095 -1 0.2
endloop
endfacet
facet normal 0 0 1
outer loop
vertex 1.2003209631427894 -0.9797419969825878 0.2
vertex 1.5982258291225706 -0.9207183857411633 0.2
vertex 0.6114024779976562 -0.9207183857411633 0.2
endloop
endfacet
facet normal 0 0 1
outer loop
vertex 1.2003209631427894 -0.9797419969825878 0.2
vertex 0.6114024779976562 -0.9207183857411633 0.2
vertex 0.6173165676349103 -0.9238795325112867 0.2
endloop
endfacet
facet normal 0 0 1
outer loop
vertex 1.2003209631427894 -0.9797419969825878 0.2
vertex 0.6173165676349103 -0.9238795325112867 0.2
vertex 0.801470433459303 -0.9797419969825878 0.2
endloop
endfacet
facet normal 0 0 1
outer loop
vertex 3.198529566540697 -0.9797419969825878 0.2
vertex 3.3826834323650896 -0.9238795325112867 0.2
vertex 3.388597522002344 -0.9207183857411633 0.2
endloop
endfacet
facet normal 0 0 1
outer loop
vertex 3.198529566540697 -0.9797419969825878 0.2
vertex 3.388597522002344 -0.9207183857411633 0.2
vertex 2.401774170877429 -0.9207183857411633 0.2
endloop
endfacet
facet normal 0 0 1
outer loop
vertex 3.198529566540697 -0.9797419969825878 0.2
vertex 2.401774170877429 -0.9207183857411633 0.2
vertex 2.79967903685721 -0.9797419969825878 0.2
endloop
endfacet
facet normal 0 0 1
outer loop
vertex 1.5982258291225706 -0.9207183857411633 0.2
vertex 1.9999999999999982 -0.9009804864072155 0.2
vertex 0.5744754656186946 -0.9009804864072155 0.2
endloop
endfacet
facet normal 0 0 1
outer loop
vertex 1.5982258291225706 -0.9207183857411633 0.2
vertex 0.5744754656186946 -0.9009804864072155 0.2
vertex 0.6114024779976562 -0.9207183857411633 0.2
endloop
endfacet
facet normal 0 0 1
outer loop
vertex 3.388597522002344 -0.9207183857411633 0.2
vertex 3.425524534381305 -0.9009804864072155 0.2
vertex 1.9999999999999982 -0.9009804864072155 0.2
endloop
endfacet
facet normal 0 0 1
outer loop
vertex 3.388597522002344 -0.9207183857411633 0.2
vertex 1.9999999999999982 -0.9009804864072155 0.2
vertex 2.401774170877429 -0.9207183857411633 0.2
endloop
endfacet
facet normal 0 0 1
outer loop
vertex 3.425524534381305 -0.9009804864072155 0.2
vertex 3.555570233019602 -0.8314696123025452 0.2
vertex 3.7071067811865475 -0.7071067811865475 0.2
endloop
endfacet
facet normal 0 0 1
outer loop
vertex 3.425524534381305 -0.9009804864072155 0.2
vertex 3.7071067811865475 -0.7071067811865475 0.2
vertex 3.8314696123025453 -0.5555702330196022 0.2
endloop
endfacet
facet normal 0 0 1
outer loop
vertex 3.425524534381305 -0.9009804864072155 0.2
vertex 3.8314696123025453 -0.5555702330196022 0.2
vertex 3.923879532511287 -0.38268343236508984 0.2
endloop
endfacet
facet normal 0 0 1
outer loop
vertex 3.425524534381305 -0.9009804864072155 0.2
vertex 3.923879532511287 -0.38268343236508984 0.2
vertex 3.9807852804032304 -0.1950903220161282 0.2
endloop
endfacet
facet normal 0 0 1
outer loop
vertex 3.425524534381305 -0.9009804864072155 0.2
vertex 3.9807852804032304 -0.1950903220161282 0.2
vertex 3.9852262894964254 -0.15000000000000002 0.2
endloop
endfacet
facet normal 0 0 1
outer loop
vertex 3.425524534381305 -0.9009804864072155 0.2
vertex 3.9852262894964254 -0.15000000000000002 0.2
vertex 0.014773710503574677 -0.15000000000000002 0.2
endloop
endfacet
facet normal 0 0 1
outer loop
vertex 3.425524534381305 -0.9009804864072155 0.2
vertex 0.014773710503574677 -0.15000000000000002 0.2
vertex 0.01921471959676957 -0.1950903220161282 0.2
endloop
endfacet
facet normal 0 0 1
outer loop
vertex 3.425524534381305 -0.9009804864072155 0.2
vertex 0.01921471959676957 -0.1950903220161282 0.2
vertex 0.07612046748871326 -0.38268343236508984 0.2
endloop
endfacet
facet normal 0 0 1
outer loop
vertex 3.425524534381305 -0.9009804864072155 0.2
vertex 0.07612046748871326 -0.38268343236508984 0.2
vertex 0.16853038769745465 -0.5555702330196022 0.2
endloop
endfacet
facet normal 0 0 1
outer loop
vertex 3.425524534381305 -0.9009804864072155 0.2
vertex 0.16853038769745465 -0.5555702330196022 0.2
vertex 0.29289321881345254 -0.7071067811865475 0.2
endloop
endfacet
facet normal 0 0 1
outer loop
vertex 3.425524534381305 -0.9009804864072155 0.2
vertex 0.29289321881345254 -0.7071067811865475 0.2
vertex 0.44442976698039804 -0.8314696123025452 0.2
endloop
endfacet
facet normal 0 0 1
outer loop
vertex 3.425524534381305 -0.9009804864072155 0.2
vertex 0.44442976698039804 -0.8314696123025452 0.2
vertex 0.5744754656186946 -0.9009804864072155 0.2
endloop
endfacet
facet normal 0 0 1
outer loop
vertex 1.0000000000000002 -0.15000000000000002 0.2
vertex 0.9707364516975815 -0.14711779206048464 0.2
vertex 0.014489837798844607 -0.14711779206048464 0.2
endloop
endfacet
facet normal 0 0 1
outer loop
vertex 1.0000000000000002 -0.15000000000000002 0.2
vertex 0.014489837798844607 -0.14711779206048464 0.2
vertex 0.014773710503574677 -0.15000000000000002 0.2
endloop
endfacet
facet normal 0 0 1
outer loop
vertex 3.9852262894964254 -0.15000000000000002 0.2
vertex 3.9855101622011553 -0.14711779206048464 0.2
vertex 1.0292635483024188 -0.14711779206048464 0.2
endloop
endfacet
facet normal 0 0 1
outer loop
vertex 3.9852262894964254 -0.15000000000000002 0.2
vertex 1.0292635483024188 -0.14711779206048464 0.2
vertex 1.0000000000000002 -0.15000000000000002 0.2
endloop
endfacet
facet normal 0 0 1
outer loop
vertex 0.9707364516975815 -0.14711779206048464 0.2
vertex 0.9425974851452362 -0.138581929876693 0.2
vertex 0.013649128753499662 -0.138581929876693 0.2
endloop
endfacet
facet normal 0 0 1
outer loop
vertex 0.9707364516975815 -0.14711779206048464 0.2
vertex 0.013649128753499662 -0.138581929876693 0.2
vertex 0.014489837798844607 -0.14711779206048464 0.2
endloop
endfacet
facet normal 0 0 1
outer loop
vertex 3.9855101622011553 -0.14711779206048464 0.2
vertex 3.9863508712465006 -0.138581929876693 0.2
vertex 1.0574025148547634 -0.138581929876693 0.2
endloop
endfacet
facet normal 0 0 1
outer loop
vertex 3.9855101622011553 -0.14711779206048464 0.2
vertex 1.0574025148547634 -0.138581929876693 0.2
vertex 1.0292635483024188 -0.14711779206048464 0.2
endloop
endfacet
facet normal 0 0 1
outer loop
vertex 0.9425974851452362 -0.138581929876693 0.2
vertex 0.9166644650470599 -0.12472044184538174 0.2
vertex 0.012283891344677222 -0.12472044184538174 0.2
endloop
endfacet
facet normal 0 0 1
outer loop
vertex 0.9425974851452362 -0.138581929876693 0.2
vertex 0.012283891344677222 -0.12472044184538174 0.2
vertex 0.013649128753499662 -0.138581929876693 0.2
endloop
endfacet
facet normal 0 0 1
outer loop
vertex 3.9863508712465006 -0.138581929876693 0.2
vertex 3.9877161086553228 -0.12472044184538174 0.2
vertex 1.0833355349529405 -0.12472044184538174 0.2
endloop
endfacet
facet normal 0 0 1
outer loop
vertex 3.9863508712465006 -0.138581929876693 0.2
vertex 1.0833355349529405 -0.12472044184538174 0.2
vertex 1.0574025148547634 -0.138581929876693 0.2
endloop
endfacet
facet normal 0 0 1
outer loop
vertex 0.9166644650470599 -0.12472044184538174 0.2
vertex 0.8939339828220179 -0.10606601717798227 0.2
vertex 0.010446590880364592 -0.10606601717798227 0.2
endloop
endfacet
facet normal 0 0 1
outer loop
vertex 0.9166644650470599 -0.12472044184538174 0.2
vertex 0.010446590880364592 -0.10606601717798227 0.2
vertex 0.012283891344677222 -0.12472044184538174 0.2
endloop
endfacet
facet normal 0 0 1
outer loop
vertex 3.9877161086553228 -0.12472044184538174 0.2
vertex 3.9895534091196354 -0.10606601717798227 0.2
vertex 1.106066017177982 -0.10606601717798227 0.2
endloop
endfacet
facet normal 0 0 1
outer loop
vertex 3.9877161086553228 -0.12472044184538174 0.2
vertex 1.106066017177982 -0.10606601717798227 0.2
vertex 1.0833355349529405 -0.12472044184538174 0.2
endloop
endfacet
facet normal 0 0 1
outer loop
vertex 0.8939339828220179 -0.10606601717798227 0.2
vertex 0.8752795581546182 -0.08333553495294019 0.2
vertex 0.008207833787035157 -0.08333553495294019 0.2
endloop
endfacet
facet normal 0 0 1
outer loop
vertex 0.8939339828220179 -0.10606601717798227 0.2
vertex 0.008207833787035157 -0.08333553495294019 0.2
vertex 0.010446590880364592 -0.10606601717798227 0.2
endloop
endfacet
facet normal 0 0 1
outer loop
vertex 3.9895534091196354 -0.10606601717798227 0.2
vertex 3.991792166212965 -0.08333553495294019 0.2
vertex 1.124720441845382 -0.08333553495294019 0.2
endloop
endfacet
facet normal 0 0 1
outer loop
vertex 3.9895534091196354 -0.10606601717798227 0.2
vertex 1.124720441845382 -0.08333553495294019 0.2
vertex 1.106066017177982 -0.10606601717798227 0.2
endloop
endfacet
facet normal 0 0 1
outer loop
vertex 0.8752795581546182 -0.08333553495294019 0.2
vertex 0.861418070123307 -0.057402514854763415 0.2
vertex 0.005653654244276107 -0.057402514854763415 0.2
endloop
endfacet
facet normal 0 0 1
outer loop
vertex 0.8752795581546182 -0.08333553495294019 0.2
vertex 0.005653654244276107 -0.057402514854763415 0.2
vertex 0.008207833787035157 -0.08333553495294019 0.2
endloop
endfacet
facet normal 0 0 1
outer loop
vertex 3.991792166212965 -0.08333553495294019 0.2
vertex 3.994346345755724 -0.057402514854763415 0.2
vertex 1.138581929876693 -0.057402514854763415 0.2
endloop
endfacet
facet normal 0 0 1
outer loop
vertex 3.991792166212965 -0.08333553495294019 0.2
vertex 1.138581929876693 -0.057402514854763415 0.2
vertex 1.124720441845382 -0.08333553495294019 0.2
endloop
endfacet
facet normal 0 0 1
outer loop
vertex 0.861418070123307 -0.057402514854763415 0.2
vertex 0.8528822079395151 -0.029263548302418063 0.2
vertex 0.0028822079395153244 -0.029263548302418063 0.2
endloop
endfacet
facet normal 0 0 1
outer loop
vertex 0.861418070123307 -0.057402514854763415 0.2
vertex 0.0028822079395153244 -0.029263548302418063 0.2
vertex 0.005653654244276107 -0.057402514854763415 0.2
endloop
endfacet
facet normal 0 0 1
outer loop
vertex 3.994346345755724 -0.057402514854763415 0.2
vertex 3.9971177920604846 -0.029263548302418063 0.2
vertex 1.147117792060485 -0.029263548302418063 0.2
endloop
endfacet
facet normal 0 0 1
outer loop
vertex 3.994346345755724 -0.057402514854763415 0.2
vertex 1.147117792060485 -0.029263548302418063 0.2
vertex 1.138581929876693 -0.057402514854763415 0.2
endloop
endfacet
facet normal 0 0 1
outer loop
vertex 0.8528822079395151 -0.029263548302418063 0.2
vertex 0.8500000000000001 0 0.2
vertex 0 0 0.2
endloop
endfacet
facet normal 0 0 1
outer loop
vertex 0.8528822079395151 -0.029263548302418063 0.2
vertex 0 0 0.2
vertex 0.0028822079395153244 -0.029263548302418063 0.2
endloop
endfacet
facet normal 0 0 1
outer loop
vertex 3.9971177920604846 -0.029263548302418063 0.2
vertex 4 0 0.2
vertex 1.1500000000000004 0 0.2
endloop
endfacet
facet normal 0 0 1
outer loop
vertex 3.9971177920604846 -0.029263548302418063 0.2
vertex 1.1500000000000004 0 0.2
vertex 1.147117792060485 -0.029263548302418063 0.2
endloop
endfacet
facet normal 0 0 1
outer loop
vertex 0.8500000000000001 0 0.2
vertex 0.8528822079395154 0.029263548302419354 0.2
vertex 0.0028822079395154354 0.029263548302419354 0.2
endloop
endfacet
facet normal 0 0 1
outer loop
vertex 0.8500000000000001 0 0.2
vertex 0.0028822079395154354 0.029263548302419354 0.2
vertex 0 0 0.2
endloop
endfacet
facet normal 0 0 1
outer loop
vertex 6 0 0.2
vertex 5.997117792060484 0.029263548302419354 0.2
vertex 1.1471177920604845 0.029263548302419354 0.2
endloop
endfacet
facet normal 0 0 1
outer loop
vertex 6 0 0.2
vertex 1.1471177920604845 0.029263548302419354 0.2
vertex 1.1500000000000004 0 0.2
endloop
endfacet
facet normal 0 0 1
outer loop
vertex 0.8528822079395154 0.029263548302419354 0.2
vertex 0.861418070123307 0.05740251485476331 0.2
vertex 0.005653654244276107 0.05740251485476331 0.2
endloop
endfacet
facet normal 0 0 1
outer loop
vertex 0.8528822079395154 0.029263548302419354 0.2
vertex 0.005653654244276107 0.05740251485476331 0.2
vertex 0.0028822079395154354 0.029263548302419354 0.2
endloop
endfacet
facet normal 0 0 1
outer loop
vertex 5.997117792060484 0.029263548302419354 0.2
vertex 5.994346345755724 0.05740251485476331 0.2
vertex 1.1385819298766928 0.05740251485476331 0.2
endloop
endfacet
facet normal 0 0 1
outer loop
vertex 5.997117792060484 0.029263548302419354 0.2
vertex 1.1385819298766928 0.05740251485476331 0.2
vertex 1.1471177920604845 0.029263548302419354 0.2
endloop
endfacet
facet normal 0 0 1
outer loop
vertex 0.861418070123307 0.05740251485476331 0.2
vertex 0.8752795581546182 0.0833355349529403 0.2
vertex 0.008207833787035157 0.0833355349529403 0.2
endloop
endfacet
facet normal 0 0 1
outer loop
vertex 0.861418070123307 0.05740251485476331 0.2
vertex 0.008207833787035157 0.0833355349529403 0.2
vertex 0.005653654244276107 0.05740251485476331 0.2
endloop
endfacet
facet normal 0 0 1
outer loop
vertex 5.994346345755724 0.05740251485476331 0.2
vertex 5.9917921662129645 0.0833355349529403 0.2
vertex 1.1247204418453818 0.0833355349529403 0.2
endloop
endfacet
facet normal 0 0 1
outer loop
vertex 5.994346345755724 0.05740251485476331 0.2
vertex 1.1247204418453818 0.0833355349529403 0.2
vertex 1.1385819298766928 0.05740251485476331 0.2
endloop
endfacet
facet normal 0 0 1
outer loop
vertex 0.8752795581546182 0.0833355349529403 0.2
vertex 0.8939339828220179 0.10606601717798207 0.2
vertex 0.010446590880364592 0.10606601717798207 0.2
endloop
endfacet
facet normal 0 0 1
outer loop
vertex 0.8752795581546182 0.0833355349529403 0.2
vertex 0.010446590880364592 0.10606601717798207 0.2
vertex 0.008207833787035157 0.0833355349529403 0.2
endloop
endfacet
facet normal 0 0 1
outer loop
vertex 5.9917921662129645 0.0833355349529403 0.2
vertex 5.989553409119636 0.10606601717798207 0.2
vertex 1.1060660171779821 0.10606601717798207 0.2
endloop
endfacet
facet normal 0 0 1
outer loop
vertex 5.9917921662129645 0.0833355349529403 0.2
vertex 1.1060660171779821 0.10606601717798207 0.2
vertex 1.1247204418453818 0.0833355349529403 0.2
endloop
endfacet
facet normal 0 0 1
outer loop
vertex 0.8939339828220179 0.10606601717798207 0.2
vertex 0.9166644650470597 0.12472044184538177 0.2
vertex 0.012283891344677222 0.12472044184538177 0.2
endloop
endfacet
facet normal 0 0 1
outer loop
vertex 0.8939339828220179 0.10606601717798207 0.2
vertex 0.012283891344677222 0.12472044184538177 0.2
vertex 0.010446590880364592 0.10606601717798207 0.2
endloop
endfacet
facet normal 0 0 1
outer loop
vertex 5.989553409119636 0.10606601717798207 0.2
vertex 5.987716108655323 0.12472044184538177 0.2
vertex 1.0833355349529405 0.12472044184538177 0.2
endloop
endfacet
facet normal 0 0 1
outer loop
vertex 5.989553409119636 0.10606601717798207 0.2
vertex 1.0833355349529405 0.12472044184538177 0.2
vertex 1.1060660171779821 0.10606601717798207 0.2
endloop
endfacet
facet normal 0 0 1
outer loop
vertex 0.9166644650470597 0.12472044184538177 0.2
vertex 0.9425974851452364 0.13858192987669296 0.2
vertex 0.013649128753499662 0.13858192987669296 0.2
endloop
endfacet
facet normal 0 0 1
outer loop
vertex 0.9166644650470597 0.12472044184538177 0.2
vertex 0.013649128753499662 0.13858192987669296 0.2
vertex 0.012283891344677222 0.12472044184538177 0.2
endloop
endfacet
facet normal 0 0 1
outer loop
vertex 5.987716108655323 0.12472044184538177 0.2
vertex 5.986350871246501 0.13858192987669296 0.2
vertex 1.0574025148547632 0.13858192987669296 0.2
endloop
endfacet
facet normal 0 0 1
outer loop
vertex 5.987716108655323 0.12472044184538177 0.2
vertex 1.0574025148547632 0.13858192987669296 0.2
vertex 1.0833355349529405 0.12472044184538177 0.2
endloop
endfacet
facet normal 0 0 1
outer loop
vertex 0.9425974851452364 0.13858192987669296 0.2
vertex 0.9707364516975806 0.1471177920604845 0.2
vertex 0.014489837798844607 0.1471177920604845 0.2
endloop
endfacet
facet normal 0 0 1
outer loop
vertex 0.9425974851452364 0.13858192987669296 0.2
vertex 0.014489837798844607 0.1471177920604845 0.2
vertex 0.013649128753499662 0.13858192987669296 0.2
endloop
endfacet
facet normal 0 0 1
outer loop
vertex 5.986350871246501 0.13858192987669296 0.2
vertex 5.985510162201155 0.1471177920604845 0.2
vertex 1.0292635483024195 0.1471177920604845 0.2
endloop
endfacet
facet normal 0 0 1
outer loop
vertex 5.986350871246501 0.13858192987669296 0.2
vertex 1.0292635483024195 0.1471177920604845 0.2
vertex 1.0574025148547632 0.13858192987669296 0.2
endloop
endfacet
facet normal 0 0 1
outer loop
vertex 0.9707364516975806 0.1471177920604845 0.2
vertex 0.9999999999999999 0.14999999999999997 0.2
vertex 0.014773710503574677 0.14999999999999997 0.2
endloop
endfacet
facet normal 0 0 1
outer loop
vertex 0.9707364516975806 0.1471177920604845 0.2
vertex 0.014773710503574677 0.14999999999999997 0.2
vertex 0.014489837798844607 0.1471177920604845 0.2
endloop
endfacet
facet normal 0 0 1
outer loop
vertex 5.985510162201155 0.1471177920604845 0.2
vertex 5.985226289496425 0.14999999999999997 0.2
vertex 0.9999999999999999 0.14999999999999997 0.2
endloop
endfacet
facet normal 0 0 1
outer loop
vertex 5.985510162201155 0.1471177920604845 0.2
vertex 0.9999999999999999 0.14999999999999997 0.2
vertex 1.0292635483024195 0.1471177920604845 0.2
endloop
endfacet
facet normal 0 0 1
outer loop
vertex 5.985226289496425 0.14999999999999997 0.2
vertex 5.98078528040323 0.19509032201612841 0.2
vertex 5.923879532511286 0.3826834323650896 0.2
endloop
endfacet
facet normal 0 0 1
outer loop
vertex 5.985226289496425 0.14999999999999997 0.2
vertex 5.923879532511286 0.3826834323650896 0.2
vertex 5.831469612302545 0.555570233019602 0.2
endloop
endfacet
facet normal 0 0 1
outer loop
vertex 5.985226289496425 0.14999999999999997 0.2
vertex 5.831469612302545 0.555570233019602 0.2
vertex 5.707106781186548 0.7071067811865475 0.2
endloop
endfacet
facet normal 0 0 1
outer loop
vertex 5.985226289496425 0.14999999999999997 0.2
vertex 5.707106781186548 0.7071067811865475 0.2
vertex 5.555570233019601 0.8314696123025453 0.2
endloop
endfacet
facet normal 0 0 1
outer loop
vertex 5.985226289496425 0.14999999999999997 0.2
vertex 5.555570233019601 0.8314696123025453 0.2
vertex 5.425524534381305 0.9009804864072156 0.2
endloop
endfacet
facet normal 0 0 1
outer loop
vertex 5.985226289496425 0.14999999999999997 0.2
vertex 5.425524534381305 0.9009804864072156 0.2
vertex 0.5744754656186946 0.9009804864072156 0.2
endloop
endfacet
facet normal 0 0 1
outer loop
vertex 5.985226289496425 0.14999999999999997 0.2
vertex 0.5744754656186946 0.9009804864072156 0.2
vertex 0.4444297669803978 0.8314696123025453 0.2
endloop
endfacet
facet normal 0 0 1
outer loop
vertex 5.985226289496425 0.14999999999999997 0.2
vertex 0.4444297669803978 0.8314696123025453 0.2
vertex 0.2928932188134523 0.7071067811865475 0.2
endloop
endfacet
facet normal 0 0 1
outer loop
vertex 5.985226289496425 0.14999999999999997 0.2
vertex 0.2928932188134523 0.7071067811865475 0.2
vertex 0.16853038769745454 0.555570233019602 0.2
endloop
endfacet
facet normal 0 0 1
outer loop
vertex 5.985226289496425 0.14999999999999997 0.2
vertex 0.16853038769745454 0.555570233019602 0.2
vertex 0.07612046748871315 0.3826834323650896 0.2
endloop
endfacet
facet normal 0 0 1
outer loop
vertex 5.985226289496425 0.14999999999999997 0.2
vertex 0.07612046748871315 0.3826834323650896 0.2
vertex 0.01921471959676957 0.19509032201612841 0.2
endloop
endfacet
facet normal 0 0 1
outer loop
vertex 5.985226289496425 0.14999999999999997 0.2
vertex 0.01921471959676957 0.19509032201612841 0.2
vertex 0.014773710503574677 0.14999999999999997 0.2
endloop
endfacet
facet normal 0 0 1
outer loop
vertex 1.9999999999999973 0.9009804864072156 0.2
vertex 1.5982258291225704 0.9207183857411634 0.2
vertex 0.6114024779976562 0.9207183857411634 0.2
endloop
endfacet
facet normal 0 0 1
outer loop
vertex 1.9999999999999973 0.9009804864072156 0.2
vertex 0.6114024779976562 0.9207183857411634 0.2
vertex 0.5744754656186946 0.9009804864072156 0.2
endloop
endfacet
facet normal 0 0 1
outer loop
vertex 5.425524534381305 0.9009804864072156 0.2
vertex 5.388597522002343 0.9207183857411634 0.2
vertex 2.401774170877427 0.9207183857411634 0.2
endloop
endfacet
facet normal 0 0 1
outer loop
vertex 5.425524534381305 0.9009804864072156 0.2
vertex 2.401774170877427 0.9207183857411634 0.2
vertex 1.9999999999999973 0.9009804864072156 0.2
endloop
endfacet
facet normal 0 0 1
outer loop
vertex 1.5982258291225704 0.9207183857411634 0.2
vertex 1.2003209631427882 0.9797419969825879 0.2
vertex 0.801470433459303 0.9797419969825879 0.2
endloop
endfacet
facet normal 0 0 1
outer loop
vertex 1.5982258291225704 0.9207183857411634 0.2
vertex 0.801470433459303 0.9797419969825879 0.2
vertex 0.6173165676349097 0.9238795325112865 0.2
endloop
endfacet
facet normal 0 0 1
outer loop
vertex 1.5982258291225704 0.9207183857411634 0.2
vertex 0.6173165676349097 0.9238795325112865 0.2
vertex 0.6114024779976562 0.9207183857411634 0.2
endloop
endfacet
facet normal 0 0 1
outer loop
vertex 5.388597522002343 0.9207183857411634 0.2
vertex 5.38268343236509 0.9238795325112865 0.2
vertex 5.198529566540697 0.9797419969825879 0.2
endloop
endfacet
facet normal 0 0 1
outer loop
vertex 5.388597522002343 0.9207183857411634 0.2
vertex 5.198529566540697 0.9797419969825879 0.2
vertex 2.7996790368572113 0.9797419969825879 0.2
endloop
endfacet
facet normal 0 0 1
outer loop
vertex 5.388597522002343 0.9207183857411634 0.2
vertex 2.7996790368572113 0.9797419969825879 0.2
vertex 2.401774170877427 0.9207183857411634 0.2
endloop
endfacet
facet normal 0 0 1
outer loop
vertex 1.2003209631427882 0.9797419969825879 0.2
vertex 1.1194464816849896 1 0.2
vertex 0.9999999999999998 1 0.2
endloop
endfacet
facet normal 0 0 1
outer loop
vertex 1.2003209631427882 0.9797419969825879 0.2
vertex 0.9999999999999998 1 0.2
vertex 0.8049096779838714 0.9807852804032304 0.2
endloop
endfacet
facet normal 0 0 1
outer loop
vertex 1.2003209631427882 0.9797419969825879 0.2
vertex 0.8049096779838714 0.9807852804032304 0.2
vertex 0.801470433459303 0.9797419969825879 0.2
endloop
endfacet
facet normal 0 0 1
outer loop
vertex 5.198529566540697 0.9797419969825879 0.2
vertex 5.195090322016128 0.9807852804032304 0.2
vertex 5 1 0.2
endloop
endfacet
facet normal 0 0 1
outer loop
vertex 5.198529566540697 0.9797419969825879 0.2
vertex 5 1 0.2
vertex 2.88055351831501 1 0.2
endloop
endfacet
facet normal 0 0 1
outer loop
vertex 5.198529566540697 0.9797419969825879 0.2
vertex 2.88055351831501 1 0.2
vertex 2.7996790368572113 0.9797419969825879 0.2
endloop
endfacet
facet normal -0.09801714032956066 -0.9951847266721969 0
outer loop
vertex 0.8049096779838718 -0.9807852804032304 -0.2
vertex 1 -1 -0.2
vertex 1 -1 0.2
endloop
endfacet
facet normal -0.09801714032956066 -0.9951847266721969 0
outer loop
vertex 0.8049096779838718 -0.9807852804032304 -0.2
vertex 1 -1 0.2
vertex 0.8049096779838718 -0.9807852804032304 0.2
endloop
endfacet
facet normal -0.2902846772544624 -0.9569403357322088 0
outer loop
vertex 0.6173165676349103 -0.9238795325112867 -0.2
vertex 0.8049096779838718 -0.9807852804032304 -0.2
vertex 0.8049096779838718 -0.9807852804032304 0.2
endloop
endfacet
facet normal -0.2902846772544624 -0.9569403357322088 0
outer loop
vertex 0.6173165676349103 -0.9238795325112867 -0.2
vertex 0.8049096779838718 -0.9807852804032304 0.2
vertex 0.6173165676349103 -0.9238795325112867 0.2
endloop
endfacet
facet normal -0.4713967368259971 -0.8819212643483554 0
outer loop
vertex 0.44442976698039804 -0.8314696123025452 -0.2
vertex 0.6173165676349103 -0.9238795325112867 -0.2
vertex 0.6173165676349103 -0.9238795325112867 0.2
endloop
endfacet
facet normal -0.4713967368259971 -0.8819212643483554 0
outer loop
vertex 0.44442976698039804 -0.8314696123025452 -0.2
vertex 0.6173165676349103 -0.9238795325112867 0.2
vertex 0.44442976698039804 -0.8314696123025452 0.2
endloop
endfacet
facet normal -0.6343932841636457 -0.7730104533627369 0
outer loop
vertex 0.29289321881345254 -0.7071067811865475 -0.2
vertex 0.44442976698039804 -0.8314696123025452 -0.2
vertex 0.44442976698039804 -0.8314696123025452 0.2
endloop
endfacet
facet normal -0.6343932841636457 -0.7730104533627369 0
outer loop
vertex 0.29289321881345254 -0.7071067811865475 -0.2
vertex 0.44442976698039804 -0.8314696123025452 0.2
vertex 0.29289321881345254 -0.7071067811865475 0.2
endloop
endfacet
facet normal -0.7730104533627368 -0.6343932841636457 0
outer loop
vertex 0.16853038769745465 -0.5555702330196022 -0.2
vertex 0.29289321881345254 -0.7071067811865475 -0.2
vertex 0.29289321881345254 -0.7071067811865475 0.2
endloop
endfacet
facet normal -0.7730104533627368 -0.6343932841636457 0
outer loop
vertex 0.16853038769745465 -0.5555702330196022 -0.2
vertex 0.29289321881345254 -0.7071067811865475 0.2
vertex 0.16853038769745465 -0.5555702330196022 0.2
endloop
endfacet
facet normal -0.8819212643483552 -0.4713967368259975 0
outer loop
vertex 0.07612046748871326 -0.38268343236508984 -0.2
vertex 0.16853038769745465 -0.5555702330196022 -0.2
vertex 0.16853038769745465 -0.5555702330196022 0.2
endloop
endfacet
facet normal -0.8819212643483552 -0.4713967368259975 0
outer loop
vertex 0.07612046748871326 -0.38268343236508984 -0.2
vertex 0.16853038769745465 -0.5555702330196022 0.2
vertex 0.07612046748871326 -0.38268343236508984 0.2
endloop
endfacet
facet normal -0.9569403357322088 -0.2902846772544626 0
outer loop
vertex 0.01921471959676957 -0.1950903220161282 -0.2
vertex 0.07612046748871326 -0.38268343236508984 -0.2
vertex 0.07612046748871326 -0.38268343236508984 0.2
endloop
endfacet
facet normal -0.9569403357322088 -0.2902846772544626 0
outer loop
vertex 0.01921471959676957 -0.1950903220161282 -0.2
vertex 0.07612046748871326 -0.38268343236508984 0.2
vertex 0.01921471959676957 -0.1950903220161282 0.2
endloop
endfacet
facet normal -0.995184726672197 -0.09801714032956055 0
outer loop
vertex 0 0 -0.2
vertex 0.01921471959676957 -0.1950903220161282 -0.2
vertex 0.01921471959676957 -0.1950903220161282 0.2
endloop
endfacet
facet normal -0.995184726672197 -0.09801714032956055 0
outer loop
vertex 0 0 -0.2
vertex 0.01921471959676957 -0.1950903220161282 0.2
vertex 0 0 0.2
endloop
endfacet
facet normal -0.995184726672197 0.09801714032956055 0
outer loop
vertex 0.01921471959676957 0.19509032201612841 -0.2
vertex 0 0 -0.2
vertex 0 0 0.2
endloop
endfacet
facet normal -0.995184726672197 0.09801714032956055 0
outer loop
vertex 0.01921471959676957 0.19509032201612841 -0.2
vertex 0 0 0.2
vertex 0.01921471959676957 0.19509032201612841 0.2
endloop
endfacet
facet normal -0.9569403357322089 0.29028467725446233 0
outer loop
vertex 0.07612046748871315 0.3826834323650896 -0.2
vertex 0.01921471959676957 0.19509032201612841 -0.2
vertex 0.01921471959676957 0.19509032201612841 0.2
endloop
endfacet
facet normal -0.9569403357322089 0.29028467725446233 0
outer loop
vertex 0.07612046748871315 0.3826834323650896 -0.2
vertex 0.01921471959676957 0.19509032201612841 0.2
vertex 0.07612046748871315 0.3826834323650896 0.2
endloop
endfacet
facet normal -0.881921264348355 0.47139673682599775 0
outer loop
vertex 0.16853038769745454 0.555570233019602 -0.2
vertex 0.07612046748871315 0.3826834323650896 -0.2
vertex 0.07612046748871315 0.3826834323650896 0.2
endloop
endfacet
facet normal -0.881921264348355 0.47139673682599775 0
outer loop
vertex 0.16853038769745454 0.555570233019602 -0.2
vertex 0.07612046748871315 0.3826834323650896 0.2
vertex 0.16853038769745454 0.555570233019602 0.2
endloop
endfacet
facet normal -0.7730104533627373 0.6343932841636452 0
outer loop
vertex 0.2928932188134523 0.7071067811865475 -0.2
vertex 0.16853038769745454 0.555570233019602 -0.2
vertex 0.16853038769745454 0.555570233019602 0.2
endloop
endfacet
facet normal -0.7730104533627373 0.6343932841636452 0
outer loop
vertex 0.2928932188134523 0.7071067811865475 -0.2
vertex 0.16853038769745454 0.555570233019602 0.2
vertex 0.2928932188134523 0.7071067811865475 0.2
endloop
endfacet
facet normal -0.6343932841636453 0.7730104533627372 0
outer loop
vertex 0.4444297669803978 0.8314696123025453 -0.2
vertex 0.2928932188134523 0.7071067811865475 -0.2
vertex 0.2928932188134523 0.7071067811865475 0.2
endloop
endfacet
facet normal -0.6343932841636453 0.7730104533627372 0
outer loop
vertex 0.4444297669803978 0.8314696123025453 -0.2
vertex 0.2928932188134523 0.7071067811865475 0.2
vertex 0.4444297669803978 0.8314696123025453 0.2
endloop
endfacet
facet normal -0.47139673682599825 0.8819212643483547 0
outer loop
vertex 0.6173165676349097 0.9238795325112865 -0.2
vertex 0.4444297669803978 0.8314696123025453 -0.2
vertex 0.4444297669803978 0.8314696123025453 0.2
endloop
endfacet
facet normal -0.47139673682599825 0.8819212643483547 0
outer loop
vertex 0.6173165676349097 0.9238795325112865 -0.2
vertex 0.4444297669803978 0.8314696123025453 0.2
vertex 0.6173165676349097 0.9238795325112865 0.2
endloop
endfacet
facet normal -0.2902846772544633 0.9569403357322086 0
outer loop
vertex 0.8049096779838714 0.9807852804032304 -0.2
vertex 0.6173165676349097 0.9238795325112865 -0.2
vertex 0.6173165676349097 0.9238795325112865 0.2
endloop
endfacet
facet normal -0.2902846772544633 0.9569403357322086 0
outer loop
vertex 0.8049096779838714 0.9807852804032304 -0.2
vertex 0.6173165676349097 0.9238795325112865 0.2
vertex 0.8049096779838714 0.9807852804032304 0.2
endloop
endfacet
facet normal -0.09801714032956099 0.9951847266721969 0
outer loop
vertex 0.9999999999999998 1 -0.2
vertex 0.8049096779838714 0.9807852804032304 -0.2
vertex 0.8049096779838714 0.9807852804032304 0.2
endloop
endfacet
facet normal -0.09801714032956099 0.9951847266721969 0
outer loop
vertex 0.9999999999999998 1 -0.2
vertex 0.8049096779838714 0.9807852804032304 0.2
vertex 0.9999999999999998 1 0.2
endloop
endfacet
facet normal 0 -1 0
outer loop
vertex 1.11944648168499 -1 -0.2
vertex 1.11944648168499 -1 0.2
vertex 1 -1 0.2
endloop
endfacet
facet normal 0 -1 0
outer loop
vertex 1.11944648168499 -1 -0.2
vertex 1 -1 0.2
vertex 1 -1 -0.2
endloop
endfacet
facet normal 0 -1 0
outer loop
vertex 3 -1 -0.2
vertex 3 -1 0.2
vertex 2.8805535183150095 -1 0.2
endloop
endfacet
facet normal 0 -1 0
outer loop
vertex 3 -1 -0.2
vertex 2.8805535183150095 -1 0.2
vertex 2.8805535183150095 -1 -0.2
endloop
endfacet
facet normal 0 1 0
outer loop
vertex 1.1194464816849896 1 0.2
vertex 1.11944648168499 1 -0.2
vertex 0.9999999999999998 1 -0.2
endloop
endfacet
facet normal 0 1 0
outer loop
vertex 1.1194464816849896 1 0.2
vertex 0.9999999999999998 1 -0.2
vertex 0.9999999999999998 1 0.2
endloop
endfacet
facet normal 0 1 0
outer loop
vertex 5 1 0.2
vertex 5 1 -0.2
vertex 2.88055351831501 1 -0.2
endloop
endfacet
facet normal 0 1 0
outer loop
vertex 5 1 0.2
vertex 2.88055351831501 1 -0.2
vertex 2.88055351831501 1 0.2
endloop
endfacet
facet normal 0.9951847266721969 -0.0980171403295609 0
outer loop
vertex 3.9807852804032304 -0.1950903220161282 -0.2
vertex 4 0 -0.2
vertex 4 0 0.2
endloop
endfacet
facet normal 0.9951847266721969 -0.0980171403295609 0
outer loop
vertex 3.9807852804032304 -0.1950903220161282 -0.2
vertex 4 0 0.2
vertex 3.9807852804032304 -0.1950903220161282 0.2
endloop
endfacet
facet normal 0.9569403357322089 -0.2902846772544625 0
outer loop
vertex 3.923879532511287 -0.38268343236508984 -0.2
vertex 3.9807852804032304 -0.1950903220161282 -0.2
vertex 3.9807852804032304 -0.1950903220161282 0.2
endloop
endfacet
facet normal 0.9569403357322089 -0.2902846772544625 0
outer loop
vertex 3.923879532511287 -0.38268343236508984 -0.2
vertex 3.9807852804032304 -0.1950903220161282 0.2
vertex 3.923879532511287 -0.38268343236508984 0.2
endloop
endfacet
facet normal 0.8819212643483549 -0.4713967368259979 0
outer loop
vertex 3.8314696123025453 -0.5555702330196022 -0.2
vertex 3.923879532511287 -0.38268343236508984 -0.2
vertex 3.923879532511287 -0.38268343236508984 0.2
endloop
endfacet
facet normal 0.8819212643483549 -0.4713967368259979 0
outer loop
vertex 3.8314696123025453 -0.5555702330196022 -0.2
vertex 3.923879532511287 -0.38268343236508984 0.2
vertex 3.8314696123025453 -0.5555702330196022 0.2
endloop
endfacet
facet normal 0.7730104533627371 -0.6343932841636453 0
outer loop
vertex 3.7071067811865475 -0.7071067811865475 -0.2
vertex 3.8314696123025453 -0.5555702330196022 -0.2
vertex 3.8314696123025453 -0.5555702330196022 0.2
endloop
endfacet
facet normal 0.7730104533627371 -0.6343932841636453 0
outer loop
vertex 3.7071067811865475 -0.7071067811865475 -0.2
vertex 3.8314696123025453 -0.5555702330196022 0.2
vertex 3.7071067811865475 -0.7071067811865475 0.2
endloop
endfacet
facet normal 0.6343932841636459 -0.7730104533627367 0
outer loop
vertex 3.555570233019602 -0.8314696123025452 -0.2
vertex 3.7071067811865475 -0.7071067811865475 -0.2
vertex 3.7071067811865475 -0.7071067811865475 0.2
endloop
endfacet
facet normal 0.6343932841636459 -0.7730104533627367 0
outer loop
vertex 3.555570233019602 -0.8314696123025452 -0.2
vertex 3.7071067811865475 -0.7071067811865475 0.2
vertex 3.555570233019602 -0.8314696123025452 0.2
endloop
endfacet
facet normal 0.4713967368259979 -0.8819212643483549 0
outer loop
vertex 3.3826834323650896 -0.9238795325112867 -0.2
vertex 3.555570233019602 -0.8314696123025452 -0.2
vertex 3.555570233019602 -0.8314696123025452 0.2
endloop
endfacet
facet normal 0.4713967368259979 -0.8819212643483549 0
outer loop
vertex 3.3826834323650896 -0.9238795325112867 -0.2
vertex 3.555570233019602 -0.8314696123025452 0.2
vertex 3.3826834323650896 -0.9238795325112867 0.2
endloop
endfacet
facet normal 0.2902846772544623 -0.9569403357322089 0
outer loop
vertex 3.1950903220161284 -0.9807852804032304 -0.2
vertex 3.3826834323650896 -0.9238795325112867 -0.2
vertex 3.3826834323650896 -0.9238795325112867 0.2
endloop
endfacet
facet normal 0.2902846772544623 -0.9569403357322089 0
outer loop
vertex 3.1950903220161284 -0.9807852804032304 -0.2
vertex 3.3826834323650896 -0.9238795325112867 0.2
vertex 3.1950903220161284 -0.9807852804032304 0.2
endloop
endfacet
facet normal 0.09801714032956088 -0.9951847266721969 0
outer loop
vertex 3 -1 -0.2
vertex 3.1950903220161284 -0.9807852804032304 -0.2
vertex 3.1950903220161284 -0.9807852804032304 0.2
endloop
endfacet
facet normal 0.09801714032956088 -0.9951847266721969 0
outer loop
vertex 3 -1 -0.2
vertex 3.1950903220161284 -0.9807852804032304 0.2
vertex 3 -1 0.2
endloop
endfacet
facet normal 0.24298017990326443 0.9700312531945439 0
outer loop
vertex 1.1194464816849896 1 0.2
vertex 1.2003209631427882 0.9797419969825879 0.2
vertex 1.2003209631427887 0.9797419969825879 -0.2
endloop
endfacet
facet normal 0.24298017990326443 0.9700312531945439 0
outer loop
vertex 1.1194464816849896 1 0.2
vertex 1.2003209631427887 0.9797419969825879 -0.2
vertex 1.11944648168499 1 -0.2
endloop
endfacet
facet normal 0.14673047445536133 0.9891765099647811 0
outer loop
vertex 1.2003209631427882 0.9797419969825879 0.2
vertex 1.5982258291225704 0.9207183857411634 0.2
vertex 1.5982258291225708 0.9207183857411633 -0.2
endloop
endfacet
facet normal 0.14673047445536133 0.9891765099647811 0
outer loop
vertex 1.2003209631427882 0.9797419969825879 0.2
vertex 1.5982258291225708 0.9207183857411633 -0.2
vertex 1.2003209631427887 0.9797419969825879 -0.2
endloop
endfacet
facet normal 0.04906767432741831 0.9987954562051724 0
outer loop
vertex 1.5982258291225704 0.9207183857411634 0.2
vertex 1.9999999999999973 0.9009804864072156 0.2
vertex 1.999999999999999 0.9009804864072155 -0.2
endloop
endfacet
facet normal 0.04906767432741831 0.9987954562051724 0
outer loop
vertex 1.5982258291225704 0.9207183857411634 0.2
vertex 1.999999999999999 0.9009804864072155 -0.2
vertex 1.5982258291225708 0.9207183857411633 -0.2
endloop
endfacet
facet normal -0.049067674327418216 0.9987954562051724 0
outer loop
vertex 1.9999999999999973 0.9009804864072156 0.2
vertex 2.401774170877427 0.9207183857411634 0.2
vertex 2.4017741708774296 0.9207183857411633 -0.2
endloop
endfacet
facet normal -0.049067674327418216 0.9987954562051724 0
outer loop
vertex 1.9999999999999973 0.9009804864072156 0.2
vertex 2.4017741708774296 0.9207183857411633 -0.2
vertex 1.999999999999999 0.9009804864072155 -0.2
endloop
endfacet
facet normal -0.14673047445536136 0.989176509964781 0
outer loop
vertex 2.401774170877427 0.9207183857411634 0.2
vertex 2.7996790368572113 0.9797419969825879 0.2
vertex 2.7996790368572113 0.9797419969825879 -0.2
endloop
endfacet
facet normal -0.14673047445536136 0.989176509964781 0
outer loop
vertex 2.401774170877427 0.9207183857411634 0.2
vertex 2.7996790368572113 0.9797419969825879 -0.2
vertex 2.4017741708774296 0.9207183857411633 -0.2
endloop
endfacet
facet normal -0.24298017990326312 0.9700312531945442 0
outer loop
vertex 2.7996790368572113 0.9797419969825879 0.2
vertex 2.88055351831501 1 0.2
vertex 2.88055351831501 1 -0.2
endloop
endfacet
facet normal -0.24298017990326312 0.9700312531945442 0
outer loop
vertex 2.7996790368572113 0.9797419969825879 0.2
vertex 2.88055351831501 1 -0.2
vertex 2.7996790368572113 0.9797419969825879 -0.2
endloop
endfacet
facet normal -0.24298017990326315 -0.9700312531945443 0
outer loop
vertex 2.8805535183150095 -1 0.2
vertex 2.79967903685721 -0.9797419969825878 0.2
vertex 2.799679036857211 -0.9797419969825877 -0.2
endloop
endfacet
facet normal -0.24298017990326315 -0.9700312531945443 0
outer loop
vertex 2.8805535183150095 -1 0.2
vertex 2.799679036857211 -0.9797419969825877 -0.2
vertex 2.8805535183150095 -1 -0.2
endloop
endfacet
facet normal -0.14673047445536136 -0.989176509964781 0
outer loop
vertex 2.79967903685721 -0.9797419969825878 0.2
vertex 2.401774170877429 -0.9207183857411633 0.2
vertex 2.4017741708774296 -0.9207183857411633 -0.2
endloop
endfacet
facet normal -0.14673047445536136 -0.989176509964781 0
outer loop
vertex 2.79967903685721 -0.9797419969825878 0.2
vertex 2.4017741708774296 -0.9207183857411633 -0.2
vertex 2.799679036857211 -0.9797419969825877 -0.2
endloop
endfacet
facet normal -0.049067674327418216 -0.9987954562051724 0
outer loop
vertex 2.401774170877429 -0.9207183857411633 0.2
vertex 1.9999999999999982 -0.9009804864072155 0.2
vertex 1.999999999999999 -0.9009804864072155 -0.2
endloop
endfacet
facet normal -0.049067674327418216 -0.9987954562051724 0
outer loop
vertex 2.401774170877429 -0.9207183857411633 0.2
vertex 1.999999999999999 -0.9009804864072155 -0.2
vertex 2.4017741708774296 -0.9207183857411633 -0.2
endloop
endfacet
facet normal 0.04906767432741832 -0.9987954562051724 0
outer loop
vertex 1.9999999999999982 -0.9009804864072155 0.2
vertex 1.5982258291225706 -0.9207183857411633 0.2
vertex 1.5982258291225724 -0.9207183857411633 -0.2
endloop
endfacet
facet normal 0.04906767432741832 -0.9987954562051724 0
outer loop
vertex 1.9999999999999982 -0.9009804864072155 0.2
vertex 1.5982258291225724 -0.9207183857411633 -0.2
vertex 1.999999999999999 -0.9009804864072155 -0.2
endloop
endfacet
facet normal 0.14673047445536136 -0.989176509964781 0
outer loop
vertex 1.5982258291225706 -0.9207183857411633 0.2
vertex 1.2003209631427894 -0.9797419969825878 0.2
vertex 1.2003209631427896 -0.9797419969825877 -0.2
endloop
endfacet
facet normal 0.14673047445536136 -0.989176509964781 0
outer loop
vertex 1.5982258291225706 -0.9207183857411633 0.2
vertex 1.2003209631427896 -0.9797419969825877 -0.2
vertex 1.5982258291225724 -0.9207183857411633 -0.2
endloop
endfacet
facet normal 0.24298017990326448 -0.9700312531945439 0
outer loop
vertex 1.2003209631427894 -0.9797419969825878 0.2
vertex 1.11944648168499 -1 0.2
vertex 1.11944648168499 -1 -0.2
endloop
endfacet
facet normal 0.24298017990326448 -0.9700312531945439 0
outer loop
vertex 1.2003209631427894 -0.9797419969825878 0.2
vertex 1.11944648168499 -1 -0.2
vertex 1.2003209631427896 -0.9797419969825877 -0.2
endloop
endfacet
facet normal -0.9951847266721969 0.09801714032956066 0
outer loop
vertex 1.1471177920604851 -0.029263548302417508 -0.2
vertex 1.147117792060485 -0.029263548302418063 0.2
vertex 1.1500000000000004 0 0.2
endloop
endfacet
facet normal -0.9951847266721969 0.09801714032956066 0
outer loop
vertex 1.1471177920604851 -0.029263548302417508 -0.2
vertex 1.1500000000000004 0 0.2
vertex 1.1500000000000001 0 -0.2
endloop
endfacet
facet normal -0.9569403357322089 0.29028467725446205 0
outer loop
vertex 1.1385819298766928 -0.057402514854763775 -0.2
vertex 1.138581929876693 -0.057402514854763415 0.2
vertex 1.147117792060485 -0.029263548302418063 0.2
endloop
endfacet
facet normal -0.9569403357322089 0.29028467725446205 0
outer loop
vertex 1.1385819298766928 -0.057402514854763775 -0.2
vertex 1.147117792060485 -0.029263548302418063 0.2
vertex 1.1471177920604851 -0.029263548302417508 -0.2
endloop
endfacet
facet normal -0.8819212643483549 0.4713967368259979 0
outer loop
vertex 1.124720441845382 -0.0833355349529401 -0.2
vertex 1.124720441845382 -0.08333553495294019 0.2
vertex 1.138581929876693 -0.057402514854763415 0.2
endloop
endfacet
facet normal -0.8819212643483549 0.4713967368259979 0
outer loop
vertex 1.124720441845382 -0.0833355349529401 -0.2
vertex 1.138581929876693 -0.057402514854763415 0.2
vertex 1.1385819298766928 -0.057402514854763775 -0.2
endloop
endfacet
facet normal -0.773010453362737 0.6343932841636456 0
outer loop
vertex 1.1060660171779821 -0.10606601717798225 -0.2
vertex 1.106066017177982 -0.10606601717798227 0.2
vertex 1.124720441845382 -0.08333553495294019 0.2
endloop
endfacet
facet normal -0.773010453362737 0.6343932841636456 0
outer loop
vertex 1.1060660171779821 -0.10606601717798225 -0.2
vertex 1.124720441845382 -0.08333553495294019 0.2
vertex 1.124720441845382 -0.0833355349529401 -0.2
endloop
endfacet
facet normal -0.6343932841636458 0.7730104533627367 0
outer loop
vertex 1.0833355349529403 -0.12472044184538178 -0.2
vertex 1.0833355349529405 -0.12472044184538174 0.2
vertex 1.106066017177982 -0.10606601717798227 0.2
endloop
endfacet
facet normal -0.6343932841636458 0.7730104533627367 0
outer loop
vertex 1.0833355349529403 -0.12472044184538178 -0.2
vertex 1.106066017177982 -0.10606601717798227 0.2
vertex 1.1060660171779821 -0.10606601717798225 -0.2
endloop
endfacet
facet normal -0.4713967368259979 0.8819212643483549 0
outer loop
vertex 1.0574025148547637 -0.138581929876693 -0.2
vertex 1.0574025148547634 -0.138581929876693 0.2
vertex 1.0833355349529405 -0.12472044184538174 0.2
endloop
endfacet
facet normal -0.4713967368259979 0.8819212643483549 0
outer loop
vertex 1.0574025148547637 -0.138581929876693 -0.2
vertex 1.0833355349529405 -0.12472044184538174 0.2
vertex 1.0833355349529403 -0.12472044184538178 -0.2
endloop
endfacet
facet normal -0.29028467725446205 0.956940335732209 0
outer loop
vertex 1.029263548302419 -0.1471177920604846 -0.2
vertex 1.0292635483024188 -0.14711779206048464 0.2
vertex 1.0574025148547634 -0.138581929876693 0.2
endloop
endfacet
facet normal -0.29028467725446205 0.956940335732209 0
outer loop
vertex 1.029263548302419 -0.1471177920604846 -0.2
vertex 1.0574025148547634 -0.138581929876693 0.2
vertex 1.0574025148547637 -0.138581929876693 -0.2
endloop
endfacet
facet normal -0.09801714032956071 0.9951847266721969 0
outer loop
vertex 0.9999999999999999 -0.15000000000000002 -0.2
vertex 1.0000000000000002 -0.15000000000000002 0.2
vertex 1.0292635483024188 -0.14711779206048464 0.2
endloop
endfacet
facet normal -0.09801714032956071 0.9951847266721969 0
outer loop
vertex 0.9999999999999999 -0.15000000000000002 -0.2
vertex 1.0292635483024188 -0.14711779206048464 0.2
vertex 1.029263548302419 -0.1471177920604846 -0.2
endloop
endfacet
facet normal 0.09801714032956069 0.9951847266721969 0
outer loop
vertex 0.9707364516975812 -0.1471177920604846 -0.2
vertex 0.9707364516975815 -0.14711779206048464 0.2
vertex 1.0000000000000002 -0.15000000000000002 0.2
endloop
endfacet
facet normal 0.09801714032956069 0.9951847266721969 0
outer loop
vertex 0.9707364516975812 -0.1471177920604846 -0.2
vertex 1.0000000000000002 -0.15000000000000002 0.2
vertex 0.9999999999999999 -0.15000000000000002 -0.2
endloop
endfacet
facet normal 0.290284677254462 0.9569403357322089 0
outer loop
vertex 0.9425974851452369 -0.138581929876693 -0.2
vertex 0.9425974851452362 -0.138581929876693 0.2
vertex 0.9707364516975815 -0.14711779206048464 0.2
endloop
endfacet
facet normal 0.290284677254462 0.9569403357322089 0
outer loop
vertex 0.9425974851452369 -0.138581929876693 -0.2
vertex 0.9707364516975815 -0.14711779206048464 0.2
vertex 0.9707364516975812 -0.1471177920604846 -0.2
endloop
endfacet
facet normal 0.4713967368259977 0.881921264348355 0
outer loop
vertex 0.9166644650470598 -0.12472044184538178 -0.2
vertex 0.9166644650470599 -0.12472044184538174 0.2
vertex 0.9425974851452362 -0.138581929876693 0.2
endloop
endfacet
facet normal 0.4713967368259977 0.881921264348355 0
outer loop
vertex 0.9166644650470598 -0.12472044184538178 -0.2
vertex 0.9425974851452362 -0.138581929876693 0.2
vertex 0.9425974851452369 -0.138581929876693 -0.2
endloop
endfacet
facet normal 0.6343932841636455 0.773010453362737 0
outer loop
vertex 0.8939339828220182 -0.10606601717798225 -0.2
vertex 0.8939339828220179 -0.10606601717798227 0.2
vertex 0.9166644650470599 -0.12472044184538174 0.2
endloop
endfacet
facet normal 0.6343932841636455 0.773010453362737 0
outer loop
vertex 0.8939339828220182 -0.10606601717798225 -0.2
vertex 0.9166644650470599 -0.12472044184538174 0.2
vertex 0.9166644650470598 -0.12472044184538178 -0.2
endloop
endfacet
facet normal 0.7730104533627367 0.6343932841636458 0
outer loop
vertex 0.8752795581546174 -0.0833355349529401 -0.2
vertex 0.8752795581546182 -0.08333553495294019 0.2
vertex 0.8939339828220179 -0.10606601717798227 0.2
endloop
endfacet
facet normal 0.7730104533627367 0.6343932841636458 0
outer loop
vertex 0.8752795581546174 -0.0833355349529401 -0.2
vertex 0.8939339828220179 -0.10606601717798227 0.2
vertex 0.8939339828220182 -0.10606601717798225 -0.2
endloop
endfacet
facet normal 0.8819212643483549 0.4713967368259979 0
outer loop
vertex 0.8614180701233071 -0.057402514854763775 -0.2
vertex 0.861418070123307 -0.057402514854763415 0.2
vertex 0.8752795581546182 -0.08333553495294019 0.2
endloop
endfacet
facet normal 0.8819212643483549 0.4713967368259979 0
outer loop
vertex 0.8614180701233071 -0.057402514854763775 -0.2
vertex 0.8752795581546182 -0.08333553495294019 0.2
vertex 0.8752795581546174 -0.0833355349529401 -0.2
endloop
endfacet
facet normal 0.9569403357322088 0.2902846772544623 0
outer loop
vertex 0.8528822079395155 -0.029263548302417508 -0.2
vertex 0.8528822079395151 -0.029263548302418063 0.2
vertex 0.861418070123307 -0.057402514854763415 0.2
endloop
endfacet
facet normal 0.9569403357322088 0.2902846772544623 0
outer loop
vertex 0.8528822079395155 -0.029263548302417508 -0.2
vertex 0.861418070123307 -0.057402514854763415 0.2
vertex 0.8614180701233071 -0.057402514854763775 -0.2
endloop
endfacet
facet normal 0.9951847266721969 0.09801714032956055 0
outer loop
vertex 0.85 0 -0.2
vertex 0.8500000000000001 0 0.2
vertex 0.8528822079395151 -0.029263548302418063 0.2
endloop
endfacet
facet normal 0.9951847266721969 0.09801714032956055 0
outer loop
vertex 0.85 0 -0.2
vertex 0.8528822079395151 -0.029263548302418063 0.2
vertex 0.8528822079395155 -0.029263548302417508 -0.2
endloop
endfacet
facet normal 0.9951847266721969 -0.09801714032956055 0
outer loop
vertex 0.8528822079395154 0.029263548302419284 -0.2
vertex 0.8528822079395154 0.029263548302419354 0.2
vertex 0.8500000000000001 0 0.2
endloop
endfacet
facet normal 0.9951847266721969 -0.09801714032956055 0
outer loop
vertex 0.8528822079395154 0.029263548302419284 -0.2
vertex 0.8500000000000001 0 0.2
vertex 0.85 0 -0.2
endloop
endfacet
facet normal 0.9569403357322089 -0.2902846772544623 0
outer loop
vertex 0.8614180701233071 0.05740251485476355 -0.2
vertex 0.861418070123307 0.05740251485476331 0.2
vertex 0.8528822079395154 0.029263548302419354 0.2
endloop
endfacet
facet normal 0.9569403357322089 -0.2902846772544623 0
outer loop
vertex 0.8614180701233071 0.05740251485476355 -0.2
vertex 0.8528822079395154 0.029263548302419354 0.2
vertex 0.8528822079395154 0.029263548302419284 -0.2
endloop
endfacet
facet normal 0.8819212643483549 -0.4713967368259976 0
outer loop
vertex 0.8752795581546183 0.08333553495294055 -0.2
vertex 0.8752795581546182 0.0833355349529403 0.2
vertex 0.861418070123307 0.05740251485476331 0.2
endloop
endfacet
facet normal 0.8819212643483549 -0.4713967368259976 0
outer loop
vertex 0.8752795581546183 0.08333553495294055 -0.2
vertex 0.861418070123307 0.05740251485476331 0.2
vertex 0.8614180701233071 0.05740251485476355 -0.2
endloop
endfacet
facet normal 0.7730104533627375 -0.6343932841636448 0
outer loop
vertex 0.8939339828220176 0.10606601717798203 -0.2
vertex 0.8939339828220179 0.10606601717798207 0.2
vertex 0.8752795581546182 0.0833355349529403 0.2
endloop
endfacet
facet normal 0.7730104533627375 -0.6343932841636448 0
outer loop
vertex 0.8939339828220176 0.10606601717798203 -0.2
vertex 0.8752795581546182 0.0833355349529403 0.2
vertex 0.8752795581546183 0.08333553495294055 -0.2
endloop
endfacet
facet normal 0.634393284163645 -0.7730104533627372 0
outer loop
vertex 0.9166644650470596 0.12472044184538175 -0.2
vertex 0.9166644650470597 0.12472044184538177 0.2
vertex 0.8939339828220179 0.10606601717798207 0.2
endloop
endfacet
facet normal 0.634393284163645 -0.7730104533627372 0
outer loop
vertex 0.9166644650470596 0.12472044184538175 -0.2
vertex 0.8939339828220179 0.10606601717798207 0.2
vertex 0.8939339828220176 0.10606601717798203 -0.2
endloop
endfacet
facet normal 0.4713967368259977 -0.881921264348355 0
outer loop
vertex 0.9425974851452364 0.138581929876693 -0.2
vertex 0.9425974851452364 0.13858192987669296 0.2
vertex 0.9166644650470597 0.12472044184538177 0.2
endloop
endfacet
facet normal 0.4713967368259977 -0.881921264348355 0
outer loop
vertex 0.9425974851452364 0.138581929876693 -0.2
vertex 0.9166644650470597 0.12472044184538177 0.2
vertex 0.9166644650470596 0.12472044184538175 -0.2
endloop
endfacet
facet normal 0.2902846772544627 -0.9569403357322088 0
outer loop
vertex 0.9707364516975806 0.14711779206048453 -0.2
vertex 0.9707364516975806 0.1471177920604845 0.2
vertex 0.9425974851452364 0.13858192987669296 0.2
endloop
endfacet
facet normal 0.2902846772544627 -0.9569403357322088 0
outer loop
vertex 0.9707364516975806 0.14711779206048453 -0.2
vertex 0.9425974851452364 0.13858192987669296 0.2
vertex 0.9425974851452364 0.138581929876693 -0.2
endloop
endfacet
facet normal 0.09801714032956155 -0.9951847266721968 0
outer loop
vertex 0.9999999999999999 0.15 -0.2
vertex 0.9999999999999999 0.14999999999999997 0.2
vertex 0.9707364516975806 0.1471177920604845 0.2
endloop
endfacet
facet normal 0.09801714032956155 -0.9951847266721968 0
outer loop
vertex 0.9999999999999999 0.15 -0.2
vertex 0.9707364516975806 0.1471177920604845 0.2
vertex 0.9707364516975806 0.14711779206048453 -0.2
endloop
endfacet
facet normal -0.0980171403295606 -0.9951847266721969 0
outer loop
vertex 1.0292635483024195 0.14711779206048453 -0.2
vertex 1.0292635483024195 0.1471177920604845 0.2
vertex 0.9999999999999999 0.14999999999999997 0.2
endloop
endfacet
facet normal -0.0980171403295606 -0.9951847266721969 0
outer loop
vertex 1.0292635483024195 0.14711779206048453 -0.2
vertex 0.9999999999999999 0.14999999999999997 0.2
vertex 0.9999999999999999 0.15 -0.2
endloop
endfacet
facet normal -0.2902846772544626 -0.9569403357322088 0
outer loop
vertex 1.0574025148547634 0.138581929876693 -0.2
vertex 1.0574025148547632 0.13858192987669296 0.2
vertex 1.0292635483024195 0.1471177920604845 0.2
endloop
endfacet
facet normal -0.2902846772544626 -0.9569403357322088 0
outer loop
vertex 1.0574025148547634 0.138581929876693 -0.2
vertex 1.0292635483024195 0.1471177920604845 0.2
vertex 1.0292635483024195 0.14711779206048453 -0.2
endloop
endfacet
facet normal -0.4713967368259978 -0.881921264348355 0
outer loop
vertex 1.08333553495294 0.12472044184538175 -0.2
vertex 1.0833355349529405 0.12472044184538177 0.2
vertex 1.0574025148547632 0.13858192987669296 0.2
endloop
endfacet
facet normal -0.4713967368259978 -0.881921264348355 0
outer loop
vertex 1.08333553495294 0.12472044184538175 -0.2
vertex 1.0574025148547632 0.13858192987669296 0.2
vertex 1.0574025148547634 0.138581929876693 -0.2
endloop
endfacet
facet normal -0.6343932841636448 -0.7730104533627377 0
outer loop
vertex 1.1060660171779824 0.10606601717798203 -0.2
vertex 1.1060660171779821 0.10606601717798207 0.2
vertex 1.0833355349529405 0.12472044184538177 0.2
endloop
endfacet
facet normal -0.6343932841636448 -0.7730104533627377 0
outer loop
vertex 1.1060660171779824 0.10606601717798203 -0.2
vertex 1.0833355349529405 0.12472044184538177 0.2
vertex 1.08333553495294 0.12472044184538175 -0.2
endloop
endfacet
facet normal -0.773010453362737 -0.6343932841636454 0
outer loop
vertex 1.1247204418453816 0.08333553495294055 -0.2
vertex 1.1247204418453818 0.0833355349529403 0.2
vertex 1.1060660171779821 0.10606601717798207 0.2
endloop
endfacet
facet normal -0.773010453362737 -0.6343932841636454 0
outer loop
vertex 1.1247204418453816 0.08333553495294055 -0.2
vertex 1.1060660171779821 0.10606601717798207 0.2
vertex 1.1060660171779824 0.10606601717798203 -0.2
endloop
endfacet
facet normal -0.8819212643483549 -0.4713967368259978 0
outer loop
vertex 1.1385819298766928 0.05740251485476355 -0.2
vertex 1.1385819298766928 0.05740251485476331 0.2
vertex 1.1247204418453818 0.0833355349529403 0.2
endloop
endfacet
facet normal -0.8819212643483549 -0.4713967368259978 0
outer loop
vertex 1.1385819298766928 0.05740251485476355 -0.2
vertex 1.1247204418453818 0.0833355349529403 0.2
vertex 1.1247204418453816 0.08333553495294055 -0.2
endloop
endfacet
facet normal -0.9569403357322088 -0.29028467725446283 0
outer loop
vertex 1.1471177920604845 0.029263548302419284 -0.2
vertex 1.1471177920604845 0.029263548302419354 0.2
vertex 1.1385819298766928 0.05740251485476331 0.2
endloop
endfacet
facet normal -0.9569403357322088 -0.29028467725446283 0
outer loop
vertex 1.1471177920604845 0.029263548302419284 -0.2
vertex 1.1385819298766928 0.05740251485476331 0.2
vertex 1.1385819298766928 0.05740251485476355 -0.2
endloop
endfacet
facet normal -0.9951847266721968 -0.09801714032956155 0
outer loop
vertex 1.1500000000000001 0 -0.2
vertex 1.1500000000000004 0 0.2
vertex 1.1471177920604845 0.029263548302419354 0.2
endloop
endfacet
facet normal -0.9951847266721968 -0.09801714032956155 0
outer loop
vertex 1.1500000000000001 0 -0.2
vertex 1.1471177920604845 0.029263548302419354 0.2
vertex 1.1471177920604845 0.029263548302419284 -0.2
endloop
endfacet
facet normal 0 -1 0
outer loop
vertex 4 0 -0.2
vertex 5 0 -0.2
vertex 5 0 0.2
endloop
endfacet
facet normal 0 -1 0
outer loop
vertex 4 0 -0.2
vertex 5 0 0.2
vertex 4 0 0.2
endloop
endfacet
facet normal 0.09801714032956044 0.9951847266721969 0
outer loop
vertex 5.195090322016128 0.9807852804032304 -0.2
vertex 5 1 -0.2
vertex 5 1 0.2
endloop
endfacet
facet normal 0.09801714032956044 0.9951847266721969 0
outer loop
vertex 5.195090322016128 0.9807852804032304 -0.2
vertex 5 1 0.2
vertex 5.195090322016128 0.9807852804032304 0.2
endloop
endfacet
facet normal 0.29028467725446266 0.9569403357322088 0
outer loop
vertex 5.38268343236509 0.9238795325112865 -0.2
vertex 5.195090322016128 0.9807852804032304 -0.2
vertex 5.195090322016128 0.9807852804032304 0.2
endloop
endfacet
facet normal 0.29028467725446266 0.9569403357322088 0
outer loop
vertex 5.38268343236509 0.9238795325112865 -0.2
vertex 5.195090322016128 0.9807852804032304 0.2
vertex 5.38268343236509 0.9238795325112865 0.2
endloop
endfacet
facet normal 0.47139673682599736 0.8819212643483552 0
outer loop
vertex 5.555570233019601 0.8314696123025453 -0.2
vertex 5.38268343236509 0.9238795325112865 -0.2
vertex 5.38268343236509 0.9238795325112865 0.2
endloop
endfacet
facet normal 0.47139673682599736 0.8819212643483552 0
outer loop
vertex 5.555570233019601 0.8314696123025453 -0.2
vertex 5.38268343236509 0.9238795325112865 0.2
vertex 5.555570233019601 0.8314696123025453 0.2
endloop
endfacet
facet normal 0.6343932841636454 0.773010453362737 0
outer loop
vertex 5.707106781186548 0.7071067811865475 -0.2
vertex 5.555570233019601 0.8314696123025453 -0.2
vertex 5.555570233019601 0.8314696123025453 0.2
endloop
endfacet
facet normal 0.6343932841636454 0.773010453362737 0
outer loop
vertex 5.707106781186548 0.7071067811865475 -0.2
vertex 5.555570233019601 0.8314696123025453 0.2
vertex 5.707106781186548 0.7071067811865475 0.2
endloop
endfacet
facet normal 0.7730104533627369 0.6343932841636456 0
outer loop
vertex 5.831469612302545 0.555570233019602 -0.2
vertex 5.707106781186548 0.7071067811865475 -0.2
vertex 5.707106781186548 0.7071067811865475 0.2
endloop
endfacet
facet normal 0.7730104533627369 0.6343932841636456 0
outer loop
vertex 5.831469612302545 0.555570233019602 -0.2
vertex 5.707106781186548 0.7071067811865475 0.2
vertex 5.831469612302545 0.555570233019602 0.2
endloop
endfacet
facet normal 0.8819212643483549 0.4713967368259979 0
outer loop
vertex 5.923879532511286 0.3826834323650896 -0.2
vertex 5.831469612302545 0.555570233019602 -0.2
vertex 5.831469612302545 0.555570233019602 0.2
endloop
endfacet
facet normal 0.8819212643483549 0.4713967368259979 0
outer loop
vertex 5.923879532511286 0.3826834323650896 -0.2
vertex 5.831469612302545 0.555570233019602 0.2
vertex 5.923879532511286 0.3826834323650896 0.2
endloop
endfacet
facet normal 0.956940335732209 0.29028467725446205 0
outer loop
vertex 5.98078528040323 0.19509032201612841 -0.2
vertex 5.923879532511286 0.3826834323650896 -0.2
vertex 5.923879532511286 0.3826834323650896 0.2
endloop
endfacet
facet normal 0.956940335732209 0.29028467725446205 0
outer loop
vertex 5.98078528040323 0.19509032201612841 -0.2
vertex 5.923879532511286 0.3826834323650896 0.2
vertex 5.98078528040323 0.19509032201612841 0.2
endloop
endfacet
facet normal 0.9951847266721969 0.09801714032955999 0
outer loop
vertex 6 0 -0.2
vertex 5.98078528040323 0.19509032201612841 -0.2
vertex 5.98078528040323 0.19509032201612841 0.2
endloop
endfacet
facet normal 0.9951847266721969 0.09801714032955999 0
outer loop
vertex 6 0 -0.2
vertex 5.98078528040323 0.19509032201612841 0.2
vertex 6 0 0.2
endloop
endfacet
facet normal 0 -1 0
outer loop
vertex 5 0 -0.2
vertex 6 0 -0.2
vertex 6 0 0.2
endloop
endfacet
facet normal 0 -1 0
outer loop
vertex 5 0 -0.2
vertex 6 0 0.2
vertex 5 0 0.2
endloop
endfacet
endsolid csg.js
